<svg width="1509" height="1587" viewBox="0 0 1509 1587" fill="none" xmlns="http://www.w3.org/2000/svg">
<path d="M372.554 651.637C-17.2307 788.858 248.172 937.091 411.27 913.926L653.886 1026.16C597.733 1057.88 510.354 1180.28 610.055 1416.17C734.608 1710.85 899.445 1155.31 879.068 1143.21C1098.69 1269.49 1040.62 1115.13 984.127 1022.16L1109.93 1085.12L947.842 940.179C988.369 971.264 1107.84 987.017 1261.5 801.354C1453.58 569.276 981.506 690.956 916.665 765.735C864.791 825.558 731.11 728.574 670.754 672.604L693.386 763.572L540.346 501.88C606.361 488.022 663.634 456.921 364.608 443.38C65.5825 429.838 245.311 576.576 372.554 651.637Z" fill="#FCFF39"/>
<path d="M512.064 463.142C-65.3407 -120.946 628.645 312.221 658.289 340.081L700.734 93.1682L728.273 417.484L927.071 183.16L797.163 434.634C827.879 389.614 920.426 350.916 1044.88 556.282C1169.34 761.648 876.121 642.523 713.955 557.289L716.067 601.703L1194.33 884.613L652.418 657.543L650.084 731.573L593.595 717.51L419.727 1415.94L565.617 635.935L446.906 724.882L510.114 576.767L256.054 651.038C339.105 597.59 506.577 485.183 512.064 463.142Z" fill="#383737"/>
<path d="M758.597 1245.48L559.783 1284.03L521.99 1307.46C409.355 1234.15 313.044 1424.22 484.945 1449.55C674.69 1477.52 739.447 1366.92 729.871 1318.8C775.732 1343.49 845.683 1363.39 758.597 1245.48Z" fill="#F97101"/>
<path d="M559.783 1008.16C506.362 1070.13 431.574 1196.96 559.783 1284.03L758.597 1245.48C794.883 1038.39 884.992 794.415 1085.17 1245.48H1283.98C1315.98 1203.91 1359.2 1055.77 1282.4 855.632C1245.08 898.517 1204.19 922.235 1188.41 928.733C1207.9 891.835 1248.98 827.784 1219.04 777.658C1202.95 750.705 1153.14 739.366 1128.54 737.974C1091.22 735.189 1061.47 745.632 1051.26 751.202L1027.99 563.924L962.842 586.202C983.032 655.822 1038.03 801.328 899.487 833.353C699.678 879.54 734.487 708.733 734.487 708.733C734.487 708.733 702.926 692.024 691.323 682.277L655.12 845.885C623.341 897.636 559.783 1002.54 559.783 1008.16Z" fill="#E42831"/>
<path d="M1283.98 1245.48H1085.17C1059.46 1286.04 1023.48 1369.74 1085.17 1380.02C1146.85 1390.3 1166.81 1369.18 1169.08 1357.34L1499.43 1380.02C1520.6 1268.91 1507.14 1086.46 1283.98 1245.48Z" fill="#F97101"/>
<path d="M559.783 1284.03C431.574 1196.96 506.362 1070.13 559.783 1008.16C559.783 1002.54 623.341 897.636 655.12 845.885L691.323 682.277C702.926 692.024 734.487 708.733 734.487 708.733C734.487 708.733 699.678 879.54 899.487 833.353C1038.03 801.328 983.032 655.822 962.842 586.202L1027.99 563.924L1051.26 751.202C1061.47 745.632 1091.22 735.189 1128.54 737.974C1153.14 739.366 1202.95 750.705 1219.04 777.658C1248.98 827.784 1207.9 891.835 1188.41 928.733C1204.19 922.235 1245.08 898.517 1282.4 855.632C1359.2 1055.77 1315.98 1203.91 1283.98 1245.48M559.783 1284.03L758.597 1245.48M559.783 1284.03L521.99 1307.46M758.597 1245.48C794.883 1038.39 884.992 794.415 1085.17 1245.48M758.597 1245.48C845.683 1363.39 775.732 1343.49 729.871 1318.8C739.447 1366.92 674.69 1477.52 484.945 1449.55C313.044 1424.22 409.355 1234.15 521.99 1307.46M1085.17 1245.48H1283.98M1085.17 1245.48C1059.46 1286.04 1023.48 1369.74 1085.17 1380.02C1146.85 1390.3 1166.81 1369.18 1169.08 1357.34L1499.43 1380.02C1520.6 1268.91 1507.14 1086.46 1283.98 1245.48M521.99 1307.46L611.187 1357.34" stroke="black" stroke-width="3.99227"/>
<path d="M734.383 714.179C717.968 779.63 758.626 881.078 920.759 830.48C959.396 813.866 1031.37 785.168 963.184 586.551C927.25 592.399 795.678 674.073 734.383 714.179Z" fill="white" stroke="black" stroke-width="3.99227"/>
<path d="M1187.68 928.778C1224.2 875.89 1269.74 764.674 1159.72 742.915C1112.02 733.48 1077.27 739.139 1052.66 751.184C1020.5 766.919 1005.64 793.552 1001.79 811.669C990.456 823.254 974.588 850.504 1001.79 866.824C990.96 879.164 975.797 905.054 1001.79 909.889C985.167 928.778 1001.79 951.444 1019.93 945.4C1018.16 969.577 1046.22 1004.94 1187.68 928.778Z" fill="#F97101"/>
<path d="M1187.68 928.778C1253.92 896.793 1379.61 792.931 1352.4 633.361C1331.01 507.84 1161.55 524.316 1028.29 563.786L1052.66 751.184C1077.27 739.139 1112.02 733.48 1159.72 742.915C1269.74 764.674 1224.2 875.89 1187.68 928.778Z" fill="white"/>
<path d="M931.517 598.606C958.658 586.891 992.141 574.493 1028.29 563.786M1187.68 928.778C1253.92 896.793 1379.61 792.931 1352.4 633.361C1331.01 507.84 1161.55 524.316 1028.29 563.786M1187.68 928.778C1224.2 875.89 1269.74 764.674 1159.72 742.915C1112.02 733.48 1077.27 739.139 1052.66 751.184M1187.68 928.778C1046.22 1004.94 1018.16 969.577 1019.93 945.4C1001.79 951.444 985.167 928.778 1001.79 909.889C975.797 905.054 990.96 879.164 1001.79 866.824C974.588 850.504 990.456 823.254 1001.79 811.669M1001.79 811.669L1097.76 784.47M1001.79 811.669C1005.64 793.552 1020.5 766.919 1052.66 751.184M1028.29 563.786L1052.66 751.184" stroke="black" stroke-width="3.99227"/>
<path d="M665.003 660.348C519.044 715.172 285.763 850.923 520.307 955.34C502.883 916.36 496.368 839.154 609.7 842.172C628.577 842.674 643.498 844.188 655.125 846.453L692.72 685.062L665.003 660.348Z" fill="white"/>
<path d="M609.7 842.172C496.368 839.154 502.883 916.36 520.307 955.34C627.125 1122.83 706.67 1014.19 744.548 955.34C774.851 908.262 704.145 901.522 665.003 904.037C688.996 887.898 713.305 857.784 655.125 846.453C643.498 844.188 628.577 842.674 609.7 842.172Z" fill="#F97101"/>
<path d="M520.307 955.34C285.763 850.923 519.044 715.172 665.003 660.348L692.72 685.062L655.125 846.453M520.307 955.34C502.883 916.36 496.368 839.154 609.7 842.172C628.577 842.674 643.498 844.188 655.125 846.453M520.307 955.34C627.125 1122.83 706.67 1014.19 744.548 955.34C774.851 908.262 704.145 901.522 665.003 904.037M665.003 904.037L609.7 879.894M665.003 904.037C688.996 887.898 713.305 857.784 655.125 846.453" stroke="black" stroke-width="3.99227"/>
<path d="M692.027 682.626L654.432 846.93" stroke="black" stroke-width="3.99227"/>
<path d="M910.628 876.171C923.609 852.474 965.453 811.434 1028.98 836.845" stroke="black" stroke-width="3.99227"/>
<path d="M963.098 851.107C906.344 872.313 907.57 961.074 983.039 943.504" stroke="black" stroke-width="3.99227"/>
<path d="M1129.24 738.323C1146.41 726.065 1175.61 696.448 1155 676.035M1155 676.035L1129.24 698.549M1155 676.035C1150.96 659.025 1160.76 624.554 1232.28 622.753" stroke="black" stroke-width="3.99227"/>
<path d="M547.91 1059.97C504.746 1122.97 472.72 1247.59 620.455 1293.89C584.105 1269.24 501.264 1192.59 582.72 1071.7C549.789 1149.43 570.231 1245.6 655.125 1284.49C614.049 1235.76 576.454 1145.25 636.327 1071.7C623.723 1113.83 614.049 1230.89 704.555 1265C660.695 1216.96 646.709 1109.96 700.378 1071.7" stroke="black" stroke-width="3.99227"/>
<path d="M1066.58 1000.09C1086.1 1096.56 1127.8 1288.68 1138.45 1285.49C1149.1 1282.29 1152.35 1093.89 1138.45 1000.09C1159.74 1103.75 1177.31 1305.95 1190.8 1285.49C1204.29 1265.02 1210.32 1088.56 1190.8 1000.09L1229.84 1285.49C1249.06 1246.58 1315.91 1159.98 1244.92 1012.89" stroke="black" stroke-width="3.99227"/>
<path d="M1139.12 656.171C1137.37 634.766 1152.16 590.597 1225.31 585.158" stroke="black" stroke-width="3.99227"/>
<path d="M648.859 897.028L716.739 820.512L706.934 783.754L751.433 752.247L763.501 774.002C746.908 779.003 718.7 793.506 738.611 811.51C758.523 829.513 771.546 800.507 775.568 783.754L793.669 801.758L775.568 840.016H738.611L677.52 906.78C670.983 907.03 656.1 905.43 648.859 897.028Z" fill="#D9D9D9" stroke="black" stroke-width="3.99227"/>
<path d="M815.644 689.986C803.377 725.093 789.637 787.958 832.819 758.567C876.001 729.175 856.128 672.841 846.314 689.986C838.135 704.274 834.537 726.726 885.57 702.233" stroke="black" stroke-width="3.99227"/>
<path d="M669.748 962.847C685.76 976.075 760.95 990.696 751.9 941.961M655.824 996.265C671.836 1009.49 744.938 1020.63 731.71 974.847M635.634 1019.94C651.646 1033.16 716.393 1044.3 702.469 1007.81" stroke="black" stroke-width="3.99227"/>
<path d="M592.468 1009.49C605.928 1018.54 627.974 1025.92 608.48 983.037C614.05 983.037 648.164 1009.49 632.151 955.885C644.915 968.417 668.772 971.758 648.164 934.999" stroke="black" stroke-width="3.99227"/>
<path d="M654.434 844.493C653.273 820.358 634.94 773.62 570.889 779.746C506.839 785.873 474.581 835.674 466.459 859.809" stroke="black" stroke-width="3.99227"/>
<path d="M952.403 627.974C975.378 683.206 996.542 797.011 897.403 810.379" stroke="black" stroke-width="3.99227"/>
<path d="M871.64 839.619C868.159 835.442 817.336 792.974 871.64 964.936C915.083 1102.51 918.518 1031.54 914.805 978.86" stroke="black" stroke-width="3.99227"/>
<ellipse cx="829.177" cy="886.265" rx="6.26582" ry="11.8354" fill="black"/>
<ellipse cx="844.491" cy="964.239" rx="6.26582" ry="11.8354" transform="rotate(-24.5012 844.491 964.239)" fill="black"/>
<ellipse cx="833.42" cy="926.471" rx="6.26582" ry="11.8354" transform="rotate(-15 833.42 926.471)" fill="black"/>
<path d="M681.291 431.838C641.839 445.994 577 476.395 633.253 484.75C660.405 488.782 679.675 480.649 691.64 471.156C696.112 462.891 700.812 455.5 705.658 449.243C708.9 449.243 704.465 460.981 691.64 471.156C645.36 556.698 623.658 735.773 720.278 717.977C773.19 708.232 826.797 674.118 856.734 650.447C884.582 640.004 1035.1 575.674 971.607 449.243C1032.18 449.244 1053.06 361.522 971.607 410.256C1129.65 188.865 865.785 86.5236 681.291 431.838Z" fill="#FDB4E9"/>
<path d="M648.57 464.561L669.804 456.902M691.038 449.243L669.804 456.902M669.804 456.902L673.633 472.219M976.481 424.878L994.582 420.352M1012.68 415.827L994.582 420.352M994.582 420.352L981.354 436.017M841.418 401.207C804.519 428.359 733.228 484.751 743.253 493.105C753.278 501.46 823.084 451.101 856.734 424.878M691.64 471.156C679.675 480.649 660.405 488.782 633.253 484.75C577 476.395 641.839 445.994 681.291 431.838C865.785 86.5236 1129.65 188.865 971.607 410.256C1053.06 361.522 1032.18 449.244 971.607 449.243C1035.1 575.674 884.582 640.004 856.734 650.447C826.797 674.118 773.19 708.232 720.278 717.977C623.658 735.773 645.36 556.698 691.64 471.156ZM691.64 471.156C696.112 462.891 700.812 455.5 705.658 449.243C708.9 449.243 704.465 460.981 691.64 471.156Z" stroke="black" stroke-width="3.99227"/>
<path d="M866.078 618.227L889.053 656.518" stroke="black" stroke-width="3.99227"/>
<path d="M797.846 484.557L824.301 527.721" stroke="black" stroke-width="3.99227"/>
<path d="M789.497 484.557L815.953 527.721" stroke="black" stroke-width="3.99227"/>
<path d="M877.617 381.017C877.617 385.89 883.883 446.46 916.605 413.738C942.782 387.561 921.478 384.73 907.554 386.586" stroke="black" stroke-width="3.99227"/>
<path d="M786.416 381.713C780.614 395.173 775.277 418.472 800.34 403.991C825.403 389.51 825.635 383.105 822.618 381.713" stroke="black" stroke-width="3.99227"/>
<path d="M805.907 324.625L799.642 385.89" stroke="black" stroke-width="3.99227"/>
<path d="M632.385 511.012C629.802 519.908 648.816 547.918 671.137 552.188C636.26 562.863 591.309 592.6 671.137 607.088" stroke="black" stroke-width="3.99227"/>
<path d="M904.072 326.017L895.718 401.207" stroke="black" stroke-width="3.99227"/>
<path d="M792.685 344.118V363.612" stroke="black" stroke-width="3.99227"/>
<path d="M885.977 345.51L889.458 368.485" stroke="black" stroke-width="3.99227"/>
<path d="M973.665 240.886C969.952 257.13 969.627 283.911 998.032 261.076" stroke="black" stroke-width="3.99227"/>
<path d="M648.364 337.846C619.05 350.909 620.754 415.213 682.688 398.36C672.303 410.181 666.179 436.67 724.762 448.065" stroke="black" stroke-width="3.99227"/>
<path d="M753.694 562.027C793.286 565.082 843.974 547.534 890.15 497.979C881.795 523.738 829.58 590.716 775.276 608.675C704.542 632.067 731.416 587.323 753.694 562.027Z" fill="#383737"/>
<path d="M725.15 533.485L707.745 550.89M690.34 568.295L707.745 550.89M707.745 550.89C718.486 555.883 734.549 560.55 753.694 562.027M890.15 497.979C883.884 493.556 879.011 488.232 875.53 477.789M890.15 497.979C901.985 506.333 915.213 504.941 920.783 504.941M890.15 497.979C843.974 547.534 793.286 565.082 753.694 562.027M890.15 497.979C881.795 523.738 829.58 590.716 775.276 608.675C704.542 632.067 731.416 587.323 753.694 562.027" stroke="black" stroke-width="3.99227"/>
<path d="M728.229 704.472C734.027 718.476 754.399 735.592 789.494 692.025" stroke="black" stroke-width="3.99227"/>
<path d="M977.466 356.444C998.066 325.679 1039.55 279.339 1040.71 340.101C1064.23 306.469 1109.16 259.609 1100.77 341.219C1127.14 307.641 1174.36 260.823 1152.25 342.178" stroke="black" stroke-width="3.99227"/>
<path d="M731.361 239.105C686.737 274.549 619.341 346.184 706.757 349.174C794.173 352.163 923.723 260.941 977.571 214.956C958.373 172.667 875.397 128.626 786.949 130.256C736.235 129.305 685.885 169.829 731.361 239.105Z" fill="#F97101"/>
<path d="M786.949 130.256C736.235 129.305 685.885 169.829 731.361 239.105C686.737 274.549 619.341 346.184 706.757 349.174C794.173 352.163 923.723 260.941 977.571 214.956C958.373 172.667 875.397 128.626 786.949 130.256ZM786.949 130.256C734.247 156.284 718.838 187.082 773.308 248.482L725.714 312.035" stroke="black" stroke-width="3.99227"/>
</svg>
