<svg width="1445" height="885" viewBox="0 0 1445 885" fill="none" xmlns="http://www.w3.org/2000/svg">
<path d="M931.557 614.429C932.417 611.794 933.378 609.188 934.442 606.619C939.866 593.526 947.815 581.629 957.836 571.608C967.857 561.587 979.754 553.638 992.847 548.215C1005.94 542.791 1019.97 540 1034.15 540V599.954L1092.77 541.332H1176.7V611.945H1226V682.559H1176.7V754.503H1092.77L1034.15 695.881V755.836C1019.97 755.836 1005.94 753.044 992.847 747.621C979.754 742.198 967.857 734.249 957.836 724.228C947.815 714.206 939.866 702.309 934.442 689.216C933.378 686.647 932.417 684.041 931.557 681.406V755.836H832.965V540H931.557V614.429Z" fill="#F97101"/>
<path d="M931.557 614.429H931.057L932.032 614.584L931.557 614.429ZM934.442 606.619L933.98 606.428L933.98 606.428L934.442 606.619ZM957.836 571.608L957.482 571.255L957.482 571.255L957.836 571.608ZM992.847 548.215L992.655 547.753L992.655 547.753L992.847 548.215ZM1034.15 540H1034.65V539.5L1034.15 539.5L1034.15 540ZM1034.15 599.954H1033.65V601.161L1034.5 600.308L1034.15 599.954ZM1092.77 541.332V540.832H1092.56L1092.41 540.978L1092.77 541.332ZM1176.7 541.332H1177.2V540.832H1176.7V541.332ZM1176.7 611.945H1176.2V612.445H1176.7V611.945ZM1226 611.945H1226.5V611.445H1226V611.945ZM1226 682.559V683.059H1226.5V682.559H1226ZM1176.7 682.559V682.059H1176.2V682.559H1176.7ZM1176.7 754.503V755.003H1177.2V754.503H1176.7ZM1092.77 754.503L1092.41 754.856L1092.56 755.003H1092.77V754.503ZM1034.15 695.881L1034.5 695.527L1033.65 694.674V695.881H1034.15ZM1034.15 755.836L1034.15 756.336L1034.65 756.336V755.836H1034.15ZM992.847 747.621L992.655 748.083L992.655 748.083L992.847 747.621ZM957.836 724.228L957.482 724.581L957.482 724.581L957.836 724.228ZM934.442 689.216L933.98 689.407L933.98 689.407L934.442 689.216ZM931.557 681.406L932.032 681.251L931.057 681.406H931.557ZM931.557 755.836V756.336H932.057V755.836H931.557ZM832.965 755.836H832.465V756.336H832.965V755.836ZM832.965 540V539.5H832.465V540H832.965ZM931.557 540H932.057V539.5H931.557V540ZM931.557 614.429L932.032 614.584C932.888 611.961 933.845 609.367 934.904 606.81L934.442 606.619L933.98 606.428C932.911 609.009 931.945 611.626 931.081 614.274L931.557 614.429ZM934.442 606.619L934.904 606.81C940.303 593.778 948.215 581.937 958.189 571.962L957.836 571.608L957.482 571.255C947.415 581.322 939.429 593.274 933.98 606.428L934.442 606.619ZM957.836 571.608L958.189 571.962C968.164 561.987 980.006 554.075 993.038 548.677L992.847 548.215L992.655 547.753C979.502 553.201 967.55 561.187 957.482 571.255L957.836 571.608ZM992.847 548.215L993.038 548.677C1006.07 543.279 1020.04 540.5 1034.15 540.5L1034.15 540L1034.15 539.5C1019.91 539.5 1005.81 542.304 992.655 547.753L992.847 548.215ZM1034.15 540H1033.65V599.954H1034.15H1034.65V540H1034.15ZM1034.15 599.954L1034.5 600.308L1093.12 541.686L1092.77 541.332L1092.41 540.978L1033.79 599.601L1034.15 599.954ZM1092.77 541.332V541.832H1176.7V541.332V540.832H1092.77V541.332ZM1176.7 541.332H1176.2V611.945H1176.7H1177.2V541.332H1176.7ZM1176.7 611.945V612.445H1226V611.945V611.445H1176.7V611.945ZM1226 611.945H1225.5V682.559H1226H1226.5V611.945H1226ZM1226 682.559V682.059H1176.7V682.559V683.059H1226V682.559ZM1176.7 682.559H1176.2V754.503H1176.7H1177.2V682.559H1176.7ZM1176.7 754.503V754.003H1092.77V754.503V755.003H1176.7V754.503ZM1092.77 754.503L1093.12 754.149L1034.5 695.527L1034.15 695.881L1033.79 696.234L1092.41 754.856L1092.77 754.503ZM1034.15 695.881H1033.65V755.836H1034.15H1034.65V695.881H1034.15ZM1034.15 755.836L1034.15 755.336C1020.04 755.336 1006.07 752.557 993.038 747.159L992.847 747.621L992.655 748.083C1005.81 753.532 1019.91 756.336 1034.15 756.336L1034.15 755.836ZM992.847 747.621L993.038 747.159C980.006 741.761 968.164 733.849 958.189 723.874L957.836 724.228L957.482 724.581C967.55 734.649 979.502 742.635 992.655 748.083L992.847 747.621ZM957.836 724.228L958.189 723.874C948.215 713.899 940.303 702.057 934.904 689.024L934.442 689.216L933.98 689.407C939.429 702.561 947.415 714.514 957.482 724.581L957.836 724.228ZM934.442 689.216L934.904 689.024C933.845 686.468 932.888 683.874 932.032 681.251L931.557 681.406L931.081 681.561C931.945 684.209 932.911 686.826 933.98 689.407L934.442 689.216ZM931.557 681.406H931.057V755.836H931.557H932.057V681.406H931.557ZM931.557 755.836V755.336H832.965V755.836V756.336H931.557V755.836ZM832.965 755.836H833.465V540H832.965H832.465V755.836H832.965ZM832.965 540V540.5H931.557V540V539.5H832.965V540ZM931.557 540H931.057V614.429H931.557H932.057V540H931.557Z" fill="#F97101"/>
<mask id="path-3-inside-1_2122_26" fill="white">
<path d="M744.742 755.678H833.226V885H700.5C642.234 885 595 837.766 595 779.5C595 721.234 642.234 674 700.5 674H744.742V755.678ZM702.202 755.678C689.985 755.678 680.081 765.582 680.081 777.799C680.081 790.016 689.985 799.92 702.202 799.92H744.742V755.678H702.202Z"/>
</mask>
<path d="M744.742 755.678H833.226V885H700.5C642.234 885 595 837.766 595 779.5C595 721.234 642.234 674 700.5 674H744.742V755.678ZM702.202 755.678C689.985 755.678 680.081 765.582 680.081 777.799C680.081 790.016 689.985 799.92 702.202 799.92H744.742V755.678H702.202Z" fill="#F97101"/>
<path d="M833.226 755.678H836.629V752.275H833.226V755.678ZM833.226 885V888.403H836.629V885H833.226ZM700.5 885L700.5 888.403H700.5V885ZM744.742 674H748.145V670.597H744.742V674ZM680.081 777.799L676.678 777.799L676.678 777.799L680.081 777.799ZM744.742 799.92V803.323H748.145V799.92H744.742ZM744.742 755.678V759.081H833.226V755.678V752.275H744.742V755.678ZM833.226 755.678H829.822V885H833.226H836.629V755.678H833.226ZM833.226 885V881.597H700.5V885V888.403H833.226V885ZM700.5 885L700.5 881.597C644.114 881.597 598.403 835.886 598.403 779.5H595H591.597C591.597 839.646 640.354 888.403 700.5 888.403L700.5 885ZM595 779.5H598.403C598.403 723.114 644.114 677.403 700.5 677.403V674V670.597C640.354 670.597 591.597 719.354 591.597 779.5H595ZM700.5 674V677.403H744.742V674V670.597H700.5V674ZM744.742 674H741.339V755.678H744.742H748.145V674H744.742ZM702.202 755.678V752.275C688.106 752.275 676.678 763.702 676.678 777.799H680.081H683.484C683.484 767.461 691.865 759.081 702.202 759.081V755.678ZM680.081 777.799L676.678 777.799C676.678 791.895 688.106 803.323 702.202 803.323V799.92V796.517C691.865 796.517 683.484 788.136 683.484 777.799L680.081 777.799ZM702.202 799.92V803.323H744.742V799.92V796.517H702.202V799.92ZM744.742 799.92H748.145V755.678H744.742H741.339V799.92H744.742ZM744.742 755.678V752.275H702.202V755.678V759.081H744.742V755.678Z" fill="#F97101" mask="url(#path-3-inside-1_2122_26)"/>
<mask id="path-5-inside-2_2122_26" fill="white">
<path d="M1226 612.036C1226 597.46 1228.83 583.026 1234.33 569.559C1239.84 556.091 1247.9 543.855 1258.07 533.548C1267.63 523.855 1278.88 516.047 1291.23 510.512L1231.34 510.512L1231.34 419.546L1339.51 358.902L1442.33 419.546L1442.33 510.512L1379.77 510.512C1392.12 516.047 1403.37 523.855 1412.93 533.548C1423.1 543.855 1431.16 556.091 1436.67 569.559C1442.17 583.026 1445 597.46 1445 612.036L1226 612.036ZM1339.51 358.902L1231.34 299.342L1231.34 210L1442.33 210L1442.33 299.342L1339.51 358.902Z"/>
</mask>
<path d="M1226 612.036C1226 597.46 1228.83 583.026 1234.33 569.559C1239.84 556.091 1247.9 543.855 1258.07 533.548C1267.63 523.855 1278.88 516.047 1291.23 510.512L1231.34 510.512L1231.34 419.546L1339.51 358.902L1442.33 419.546L1442.33 510.512L1379.77 510.512C1392.12 516.047 1403.37 523.855 1412.93 533.548C1423.1 543.855 1431.16 556.091 1436.67 569.559C1442.17 583.026 1445 597.46 1445 612.036L1226 612.036ZM1339.51 358.902L1231.34 299.342L1231.34 210L1442.33 210L1442.33 299.342L1339.51 358.902Z" fill="#F97101"/>
<path d="M1226 612.036L1225 612.036L1225 613.036L1226 613.036L1226 612.036ZM1234.33 569.559L1233.41 569.18L1233.41 569.18L1234.33 569.559ZM1258.07 533.548L1257.36 532.846L1257.36 532.846L1258.07 533.548ZM1291.23 510.512L1291.64 511.424L1291.23 509.512L1291.23 510.512ZM1231.34 510.512L1230.34 510.512L1230.34 511.512L1231.34 511.512L1231.34 510.512ZM1231.34 419.546L1230.85 418.674L1230.34 418.96L1230.34 419.546L1231.34 419.546ZM1442.33 419.546L1443.33 419.546L1443.33 418.975L1442.84 418.685L1442.33 419.546ZM1442.33 510.512L1442.33 511.512L1443.33 511.512L1443.33 510.512L1442.33 510.512ZM1379.77 510.512L1379.77 509.512L1379.36 511.424L1379.77 510.512ZM1412.93 533.548L1413.64 532.846L1413.64 532.846L1412.93 533.548ZM1436.67 569.559L1437.59 569.18L1437.59 569.18L1436.67 569.559ZM1445 612.036L1445 613.036L1446 613.036L1446 612.036L1445 612.036ZM1231.34 299.342L1230.34 299.342L1230.34 299.933L1230.86 300.218L1231.34 299.342ZM1231.34 210L1231.34 209L1230.34 209L1230.34 210L1231.34 210ZM1442.33 210L1443.33 210L1443.33 209L1442.33 209L1442.33 210ZM1442.33 299.342L1442.83 300.207L1443.33 299.918L1443.33 299.342L1442.33 299.342ZM1226 612.036L1227 612.036C1227 597.589 1229.81 583.284 1235.26 569.937L1234.33 569.559L1233.41 569.18C1227.86 582.768 1225 597.33 1225 612.036L1226 612.036ZM1234.33 569.559L1235.26 569.937C1240.71 556.59 1248.71 544.464 1258.78 534.25L1258.07 533.548L1257.36 532.846C1247.1 543.246 1238.96 555.593 1233.41 569.18L1234.33 569.559ZM1258.07 533.548L1258.78 534.25C1268.26 524.645 1279.4 516.909 1291.64 511.424L1291.23 510.512L1290.83 509.599C1278.36 515.185 1267.01 523.065 1257.36 532.846L1258.07 533.548ZM1291.23 510.512L1291.23 509.512L1231.34 509.512L1231.34 510.512L1231.34 511.512L1291.23 511.512L1291.23 510.512ZM1231.34 510.512L1232.34 510.512L1232.34 419.546L1231.34 419.546L1230.34 419.546L1230.34 510.512L1231.34 510.512ZM1231.34 419.546L1231.83 420.418L1339.99 359.775L1339.51 358.902L1339.02 358.03L1230.85 418.674L1231.34 419.546ZM1339.51 358.902L1339 359.764L1441.82 420.407L1442.33 419.546L1442.84 418.685L1340.01 358.041L1339.51 358.902ZM1442.33 419.546L1441.33 419.546L1441.33 510.512L1442.33 510.512L1443.33 510.512L1443.33 419.546L1442.33 419.546ZM1442.33 510.512L1442.33 509.512L1379.77 509.512L1379.77 510.512L1379.77 511.512L1442.33 511.512L1442.33 510.512ZM1379.77 510.512L1379.36 511.424C1391.6 516.909 1402.74 524.645 1412.22 534.25L1412.93 533.548L1413.64 532.846C1403.99 523.065 1392.64 515.185 1380.18 509.599L1379.77 510.512ZM1412.93 533.548L1412.22 534.25C1422.29 544.464 1430.29 556.59 1435.74 569.937L1436.67 569.559L1437.59 569.18C1432.04 555.593 1423.9 543.246 1413.64 532.846L1412.93 533.548ZM1436.67 569.559L1435.74 569.937C1441.19 583.284 1444 597.589 1444 612.036L1445 612.036L1446 612.036C1446 597.33 1443.14 582.768 1437.59 569.18L1436.67 569.559ZM1445 612.036L1445 611.036L1226 611.036L1226 612.036L1226 613.036L1445 613.036L1445 612.036ZM1339.51 358.902L1339.99 358.026L1231.82 298.466L1231.34 299.342L1230.86 300.218L1339.02 359.778L1339.51 358.902ZM1231.34 299.342L1232.34 299.342L1232.34 210L1231.34 210L1230.34 210L1230.34 299.342L1231.34 299.342ZM1231.34 210L1231.34 211L1442.33 211L1442.33 210L1442.33 209L1231.34 209L1231.34 210ZM1442.33 210L1441.33 210L1441.33 299.342L1442.33 299.342L1443.33 299.342L1443.33 210L1442.33 210ZM1442.33 299.342L1441.83 298.476L1339 358.037L1339.51 358.902L1340.01 359.768L1442.83 300.207L1442.33 299.342Z" fill="#F97101" mask="url(#path-5-inside-2_2122_26)"/>
<path d="M208.513 123V203.215H91.7021C87.8363 203.215 84.7022 206.349 84.7021 210.215V245.041C84.7021 248.907 87.8363 252.041 91.7021 252.041H208.513V334H41.1074V290.405H1V164.852H41.1074V123H208.513Z" fill="#F97101"/>
<path d="M208.513 123H209.013V122.5H208.513V123ZM208.513 203.215V203.715H209.013V203.215H208.513ZM91.7021 203.215L91.7021 202.715L91.7021 202.715L91.7021 203.215ZM84.7021 210.215L84.2021 210.215V210.215H84.7021ZM91.7021 252.041L91.7021 252.541H91.7021V252.041ZM208.513 252.041H209.013V251.541H208.513V252.041ZM208.513 334V334.5H209.013V334H208.513ZM41.1074 334H40.6074V334.5H41.1074V334ZM41.1074 290.405H41.6074V289.905H41.1074V290.405ZM1 290.405H0.5V290.905H1V290.405ZM1 164.852V164.352H0.5V164.852H1ZM41.1074 164.852V165.352H41.6074V164.852H41.1074ZM41.1074 123V122.5H40.6074V123H41.1074ZM208.513 123H208.013V203.215H208.513H209.013V123H208.513ZM208.513 203.215V202.715H91.7021V203.215V203.715H208.513V203.215ZM91.7021 203.215L91.7021 202.715C87.5602 202.715 84.2022 206.073 84.2021 210.215L84.7021 210.215L85.2021 210.215C85.2022 206.625 88.1124 203.715 91.7022 203.715L91.7021 203.215ZM84.7021 210.215H84.2021V245.041H84.7021H85.2021V210.215H84.7021ZM84.7021 245.041H84.2021C84.2021 249.183 87.5602 252.541 91.7021 252.541L91.7021 252.041L91.7022 251.541C88.1124 251.541 85.2021 248.631 85.2021 245.041H84.7021ZM91.7021 252.041V252.541H208.513V252.041V251.541H91.7021V252.041ZM208.513 252.041H208.013V334H208.513H209.013V252.041H208.513ZM208.513 334V333.5H41.1074V334V334.5H208.513V334ZM41.1074 334H41.6074V290.405H41.1074H40.6074V334H41.1074ZM41.1074 290.405V289.905H1V290.405V290.905H41.1074V290.405ZM1 290.405H1.5V164.852H1H0.5V290.405H1ZM1 164.852V165.352H41.1074V164.852V164.352H1V164.852ZM41.1074 164.852H41.6074V123H41.1074H40.6074V164.852H41.1074ZM41.1074 123V123.5H208.513V123V122.5H41.1074V123Z" fill="#F97101"/>
<path d="M1231.26 1L1311.47 0.999996L1311.47 118.851C1311.47 122.716 1314.6 125.851 1318.47 125.851L1353.3 125.851C1357.16 125.851 1360.3 122.716 1360.3 118.851L1360.3 0.999994L1442.26 0.999991L1442.26 169.812L1398.66 169.812L1398.66 210.256L1273.11 210.256L1273.11 169.812L1231.26 169.812L1231.26 1Z" fill="#F97101"/>
<path d="M1231.26 1L1231.26 0.5L1230.76 0.5L1230.76 1L1231.26 1ZM1311.47 0.999996L1311.97 0.999996L1311.97 0.499996L1311.47 0.499996L1311.47 0.999996ZM1311.47 118.851L1310.97 118.851L1310.97 118.851L1311.47 118.851ZM1318.47 125.851L1318.47 126.351L1318.47 126.351L1318.47 125.851ZM1353.3 125.851L1353.3 126.351L1353.3 125.851ZM1360.3 118.851L1360.8 118.851L1360.8 118.851L1360.3 118.851ZM1360.3 0.999994L1360.3 0.499994L1359.8 0.499994L1359.8 0.999994L1360.3 0.999994ZM1442.26 0.999991L1442.76 0.999991L1442.76 0.499991L1442.26 0.499991L1442.26 0.999991ZM1442.26 169.812L1442.26 170.312L1442.76 170.312L1442.76 169.812L1442.26 169.812ZM1398.66 169.812L1398.66 169.312L1398.16 169.312L1398.16 169.812L1398.66 169.812ZM1398.66 210.256L1398.66 210.756L1399.16 210.756L1399.16 210.256L1398.66 210.256ZM1273.11 210.256L1272.61 210.256L1272.61 210.756L1273.11 210.756L1273.11 210.256ZM1273.11 169.812L1273.61 169.812L1273.61 169.312L1273.11 169.312L1273.11 169.812ZM1231.26 169.812L1230.76 169.812L1230.76 170.312L1231.26 170.312L1231.26 169.812ZM1231.26 1L1231.26 1.5L1311.47 1.5L1311.47 0.999996L1311.47 0.499996L1231.26 0.5L1231.26 1ZM1311.47 0.999996L1310.97 0.999997L1310.97 118.851L1311.47 118.851L1311.97 118.851L1311.97 0.999996L1311.47 0.999996ZM1311.47 118.851L1310.97 118.851C1310.97 122.993 1314.33 126.351 1318.47 126.351L1318.47 125.851L1318.47 125.351C1314.88 125.351 1311.97 122.44 1311.97 118.851L1311.47 118.851ZM1318.47 125.851L1318.47 126.351L1353.3 126.351L1353.3 125.851L1353.3 125.351L1318.47 125.351L1318.47 125.851ZM1353.3 125.851L1353.3 126.351C1357.44 126.351 1360.8 122.993 1360.8 118.851L1360.3 118.851L1359.8 118.851C1359.8 122.44 1356.89 125.351 1353.3 125.351L1353.3 125.851ZM1360.3 118.851L1360.8 118.851L1360.8 0.999994L1360.3 0.999994L1359.8 0.999994L1359.8 118.851L1360.3 118.851ZM1360.3 0.999994L1360.3 1.49999L1442.26 1.49999L1442.26 0.999991L1442.26 0.499991L1360.3 0.499994L1360.3 0.999994ZM1442.26 0.999991L1441.76 0.999991L1441.76 169.812L1442.26 169.812L1442.76 169.812L1442.76 0.999991L1442.26 0.999991ZM1442.26 169.812L1442.26 169.312L1398.66 169.312L1398.66 169.812L1398.66 170.312L1442.26 170.312L1442.26 169.812ZM1398.66 169.812L1398.16 169.812L1398.16 210.256L1398.66 210.256L1399.16 210.256L1399.16 169.812L1398.66 169.812ZM1398.66 210.256L1398.66 209.756L1273.11 209.756L1273.11 210.256L1273.11 210.756L1398.66 210.756L1398.66 210.256ZM1273.11 210.256L1273.61 210.256L1273.61 169.812L1273.11 169.812L1272.61 169.812L1272.61 210.256L1273.11 210.256ZM1273.11 169.812L1273.11 169.312L1231.26 169.312L1231.26 169.812L1231.26 170.312L1273.11 170.312L1273.11 169.812ZM1231.26 169.812L1231.76 169.812L1231.76 1L1231.26 1L1230.76 1L1230.76 169.812L1231.26 169.812Z" fill="#F97101"/>
<mask id="path-11-inside-3_2122_26" fill="white">
<path d="M208.678 422.484L208.678 334L338 334L338 466.726C338 524.992 290.766 572.226 232.5 572.226C174.234 572.226 127 524.992 127 466.726L127 422.484L208.678 422.484ZM208.678 465.024C208.678 477.241 218.582 487.145 230.799 487.145C243.016 487.145 252.92 477.241 252.92 465.024L252.92 422.484L208.678 422.484L208.678 465.024Z"/>
</mask>
<path d="M208.678 422.484L208.678 334L338 334L338 466.726C338 524.992 290.766 572.226 232.5 572.226C174.234 572.226 127 524.992 127 466.726L127 422.484L208.678 422.484ZM208.678 465.024C208.678 477.241 218.582 487.145 230.799 487.145C243.016 487.145 252.92 477.241 252.92 465.024L252.92 422.484L208.678 422.484L208.678 465.024Z" fill="#F97101"/>
<path d="M208.678 334L208.678 330.597L205.274 330.597L205.274 334L208.678 334ZM338 334L341.403 334L341.403 330.597L338 330.597L338 334ZM338 466.726L341.403 466.726L341.403 466.726L338 466.726ZM127 422.484L127 419.08L123.597 419.08L123.597 422.484L127 422.484ZM208.678 465.024L212.081 465.024L208.678 465.024ZM230.799 487.145L230.799 490.548L230.799 490.548L230.799 487.145ZM252.92 465.024L256.323 465.024L252.92 465.024ZM252.92 422.484L256.323 422.484L256.323 419.08L252.92 419.08L252.92 422.484ZM208.678 422.484L212.081 422.484L212.081 334L208.678 334L205.274 334L205.275 422.484L208.678 422.484ZM208.678 334L208.678 337.403L338 337.403L338 334L338 330.597L208.678 330.597L208.678 334ZM338 334L334.597 334L334.597 466.726L338 466.726L341.403 466.726L341.403 334L338 334ZM338 466.726L334.597 466.726C334.597 523.112 288.886 568.823 232.5 568.823L232.5 572.226L232.5 575.629C292.646 575.629 341.403 526.871 341.403 466.726L338 466.726ZM232.5 572.226L232.5 568.823C176.114 568.823 130.403 523.112 130.403 466.726L127 466.726L123.597 466.726C123.597 526.871 172.354 575.629 232.5 575.629L232.5 572.226ZM127 466.726L130.403 466.726L130.403 422.484L127 422.484L123.597 422.484L123.597 466.726L127 466.726ZM127 422.484L127 425.887L208.678 425.887L208.678 422.484L208.678 419.08L127 419.08L127 422.484ZM208.678 465.024L205.275 465.024C205.275 479.12 216.702 490.548 230.799 490.548L230.799 487.145L230.799 483.742C220.461 483.742 212.081 475.361 212.081 465.024L208.678 465.024ZM230.799 487.145L230.799 490.548C244.895 490.548 256.323 479.12 256.323 465.024L252.92 465.024L249.517 465.024C249.517 475.361 241.136 483.741 230.799 483.742L230.799 487.145ZM252.92 465.024L256.323 465.024L256.323 422.484L252.92 422.484L249.517 422.484L249.517 465.024L252.92 465.024ZM252.92 422.484L252.92 419.08L208.678 419.08L208.678 422.484L208.678 425.887L252.92 425.887L252.92 422.484ZM208.678 422.484L205.275 422.484L205.275 465.024L208.678 465.024L212.081 465.024L212.081 422.484L208.678 422.484Z" fill="#F97101" mask="url(#path-11-inside-3_2122_26)"/>
</svg>
