<svg width="554" height="502" viewBox="0 0 554 502" fill="none" xmlns="http://www.w3.org/2000/svg">
<rect width="554" height="502" fill="#FDB4E9"/>
<path d="M42 200H515" stroke="black" stroke-width="3"/>
<path d="M42 438H515" stroke="black" stroke-width="3"/>
<path d="M48.2363 41.55L48.1613 51.625H56.0613C60.678 51.675 64.0197 52.625 66.0863 54.475C68.153 56.3083 69.1863 58.925 69.1863 62.325C69.1863 65.8417 68.003 68.5 65.6363 70.3C63.2863 72.1 60.0197 73 55.8363 73H43.8613C43.6113 73 43.4863 72.875 43.4863 72.625L43.6613 55.7L43.4863 38.375C43.4863 38.125 43.6113 38 43.8613 38H65.4363C65.6697 38 65.7863 38.125 65.7863 38.375V41.175C65.7863 41.425 65.6697 41.55 65.4363 41.55H48.2363ZM48.1363 55.175L48.2363 69.45H55.9363C61.653 69.45 64.5113 67.1 64.5113 62.4C64.5113 59.8667 63.7697 58.0333 62.2863 56.9C60.803 55.75 58.753 55.175 56.1363 55.175H48.1363ZM94.4031 72.625C94.4031 72.875 94.2781 73 94.0281 73H72.3281C72.0781 73 71.9531 72.875 71.9531 72.625L72.1281 54.875L71.9531 38.375C71.9531 38.125 72.0781 38 72.3281 38H93.6281C93.7448 38 93.8365 38.0333 93.9031 38.1C93.9698 38.1667 94.0031 38.2583 94.0031 38.375V41.175C94.0031 41.2917 93.9698 41.3833 93.9031 41.45C93.8365 41.5167 93.7448 41.55 93.6281 41.55H76.7281L76.5781 52.55H92.4281C92.6781 52.55 92.8031 52.6667 92.8031 52.9V55.725C92.8031 55.9583 92.6781 56.075 92.4281 56.075H76.5781L76.7281 69.45H94.0281C94.1448 69.45 94.2365 69.4833 94.3031 69.55C94.3698 69.6167 94.4031 69.7083 94.4031 69.825V72.625ZM109.01 73.625C106.36 73.625 104.052 73.1667 102.085 72.25C100.118 71.3167 98.5685 69.9333 97.4352 68.1C96.3185 66.25 95.7102 63.975 95.6102 61.275C95.6102 61.025 95.7268 60.9 95.9602 60.9H100.11C100.327 60.9 100.452 61.0167 100.485 61.25C100.702 64.2167 101.518 66.45 102.935 67.95C104.352 69.4333 106.468 70.175 109.285 70.175C111.768 70.175 113.76 69.6 115.26 68.45C116.777 67.3 117.535 65.575 117.535 63.275C117.535 60.875 116.752 59.1167 115.185 58C113.618 56.8667 111.393 56.3 108.51 56.3H105.36C105.127 56.3 105.01 56.1833 105.01 55.95V53.325C105.01 53.0917 105.127 52.975 105.36 52.975H108.485C111.235 52.975 113.293 52.4583 114.66 51.425C116.027 50.375 116.71 48.8583 116.71 46.875C116.71 44.9083 116.043 43.4083 114.71 42.375C113.377 41.325 111.627 40.8 109.46 40.8C107.027 40.8 105.068 41.4167 103.585 42.65C102.102 43.8667 101.268 45.6667 101.085 48.05C101.085 48.2833 100.96 48.4 100.71 48.4H96.5852C96.4685 48.4 96.3768 48.3667 96.3102 48.3C96.2435 48.2333 96.2185 48.1417 96.2352 48.025C96.5852 44.4917 97.9352 41.8333 100.285 40.05C102.635 38.2667 105.76 37.375 109.66 37.375C111.96 37.375 113.993 37.7333 115.76 38.45C117.543 39.1667 118.927 40.2083 119.91 41.575C120.91 42.9417 121.41 44.5667 121.41 46.45C121.41 48.4833 120.86 50.175 119.76 51.525C118.677 52.875 117.127 53.825 115.11 54.375V54.475C117.46 55.0417 119.243 56.0833 120.46 57.6C121.693 59.1167 122.31 61 122.31 63.25C122.31 65.4833 121.718 67.3833 120.535 68.95C119.368 70.5 117.777 71.6667 115.76 72.45C113.76 73.2333 111.51 73.625 109.01 73.625ZM140.61 73.625C137.277 73.625 134.343 72.8833 131.81 71.4C129.293 69.9 127.343 67.7833 125.96 65.05C124.577 62.3167 123.885 59.1417 123.885 55.525C123.885 51.8417 124.577 48.6333 125.96 45.9C127.343 43.1667 129.293 41.0667 131.81 39.6C134.343 38.1167 137.285 37.375 140.635 37.375C143.985 37.375 146.918 38.1083 149.435 39.575C151.952 41.0417 153.902 43.1417 155.285 45.875C156.668 48.6083 157.36 51.8333 157.36 55.55C157.36 59.1667 156.66 62.3417 155.26 65.075C153.877 67.8083 151.918 69.9167 149.385 71.4C146.868 72.8833 143.943 73.625 140.61 73.625ZM140.635 69.975C143.085 69.975 145.202 69.4 146.985 68.25C148.785 67.1 150.16 65.4417 151.11 63.275C152.06 61.1083 152.535 58.5333 152.535 55.55C152.535 52.5667 152.06 49.9833 151.11 47.8C150.16 45.6167 148.785 43.9417 146.985 42.775C145.202 41.6083 143.077 41.025 140.61 41.025C138.143 41.025 136.01 41.6083 134.21 42.775C132.427 43.925 131.06 45.5917 130.11 47.775C129.177 49.9417 128.71 52.5333 128.71 55.55C128.71 58.5167 129.185 61.0833 130.135 63.25C131.102 65.4167 132.477 67.0833 134.26 68.25C136.06 69.4 138.185 69.975 140.635 69.975ZM186.941 38C187.191 38 187.316 38.125 187.316 38.375L187.141 55.225L187.316 72.625C187.316 72.875 187.191 73 186.941 73H182.891C182.658 73 182.541 72.875 182.541 72.625L182.666 55.225L182.641 41.55H164.616L164.566 55.225L164.716 72.625C164.716 72.875 164.6 73 164.366 73H160.316C160.066 73 159.941 72.875 159.941 72.625L160.116 55.225L159.941 38.375C159.941 38.125 160.066 38 160.316 38H186.941ZM219.651 72.575C219.667 72.625 219.676 72.6833 219.676 72.75C219.676 72.9167 219.567 73 219.351 73H215.251C215.034 73 214.901 72.9 214.851 72.7L211.301 62.425H197.026L193.526 72.7C193.476 72.9 193.342 73 193.126 73H189.126C188.992 73 188.901 72.9667 188.851 72.9C188.801 72.8167 188.792 72.7083 188.826 72.575L201.151 38.3C201.201 38.1 201.334 38 201.551 38H207.051C207.251 38 207.392 38.1 207.476 38.3L219.651 72.575ZM198.201 58.675H210.076L204.101 41.3L198.201 58.675ZM234.376 73.625C230.976 73.625 228.051 72.9 225.601 71.45C223.151 70 221.276 67.9167 219.976 65.2C218.676 62.4667 218.026 59.2167 218.026 55.45C218.026 51.7833 218.684 48.5917 220.001 45.875C221.334 43.1417 223.226 41.0417 225.676 39.575C228.142 38.1083 231.042 37.375 234.376 37.375C238.159 37.375 241.342 38.35 243.926 40.3C246.509 42.2333 248.192 45.3417 248.976 49.625V49.725C248.976 49.925 248.867 50.025 248.651 50.025L244.751 50.025C244.551 50.025 244.426 49.9167 244.376 49.7C243.876 46.7833 242.742 44.6083 240.976 43.175C239.209 41.7417 236.984 41.025 234.301 41.025C231.901 41.025 229.834 41.6167 228.101 42.8C226.384 43.9833 225.076 45.6583 224.176 47.825C223.292 49.9917 222.851 52.5333 222.851 55.45C222.851 58.6167 223.301 61.2833 224.201 63.45C225.117 65.6167 226.426 67.25 228.126 68.35C229.842 69.4333 231.892 69.975 234.276 69.975C237.209 69.975 239.576 69.1667 241.376 67.55C243.176 65.9333 244.234 63.6 244.551 60.55C244.601 60.3167 244.734 60.2 244.951 60.2H248.901C249.034 60.2 249.126 60.2417 249.176 60.325C249.242 60.4083 249.259 60.5167 249.226 60.65C248.609 64.9667 247.001 68.2083 244.401 70.375C241.817 72.5417 238.476 73.625 234.376 73.625ZM274.839 38.375C274.839 38.125 274.964 38 275.214 38H279.264C279.498 38 279.614 38.125 279.614 38.375L279.464 55.7L279.614 72.625C279.614 72.875 279.498 73 279.264 73H275.214C274.964 73 274.839 72.875 274.839 72.625L274.964 55.975H256.339L256.489 72.625C256.489 72.875 256.364 73 256.114 73H252.064C251.814 73 251.689 72.875 251.689 72.625L251.864 55.7L251.689 38.375C251.689 38.125 251.814 38 252.064 38H256.114C256.364 38 256.489 38.125 256.489 38.375L256.389 52.45H274.939L274.839 38.375ZM298.96 73.625C295.626 73.625 292.693 72.8833 290.16 71.4C287.643 69.9 285.693 67.7833 284.31 65.05C282.926 62.3167 282.235 59.1417 282.235 55.525C282.235 51.8417 282.926 48.6333 284.31 45.9C285.693 43.1667 287.643 41.0667 290.16 39.6C292.693 38.1167 295.635 37.375 298.985 37.375C302.335 37.375 305.268 38.1083 307.785 39.575C310.301 41.0417 312.251 43.1417 313.635 45.875C315.018 48.6083 315.71 51.8333 315.71 55.55C315.71 59.1667 315.01 62.3417 313.61 65.075C312.226 67.8083 310.268 69.9167 307.735 71.4C305.218 72.8833 302.293 73.625 298.96 73.625ZM298.985 69.975C301.435 69.975 303.551 69.4 305.335 68.25C307.135 67.1 308.51 65.4417 309.46 63.275C310.41 61.1083 310.885 58.5333 310.885 55.55C310.885 52.5667 310.41 49.9833 309.46 47.8C308.51 45.6167 307.135 43.9417 305.335 42.775C303.551 41.6083 301.426 41.025 298.96 41.025C296.493 41.025 294.36 41.6083 292.56 42.775C290.776 43.925 289.41 45.5917 288.46 47.775C287.526 49.9417 287.06 52.5333 287.06 55.55C287.06 58.5167 287.535 61.0833 288.485 63.25C289.451 65.4167 290.826 67.0833 292.61 68.25C294.41 69.4 296.535 69.975 298.985 69.975ZM333.839 73.625C330.439 73.625 327.514 72.9 325.064 71.45C322.614 70 320.739 67.9167 319.439 65.2C318.139 62.4667 317.489 59.2167 317.489 55.45C317.489 51.7833 318.147 48.5917 319.464 45.875C320.797 43.1417 322.689 41.0417 325.139 39.575C327.605 38.1083 330.505 37.375 333.839 37.375C337.622 37.375 340.805 38.35 343.389 40.3C345.972 42.2333 347.655 45.3417 348.439 49.625V49.725C348.439 49.925 348.33 50.025 348.114 50.025H344.214C344.014 50.025 343.889 49.9167 343.839 49.7C343.339 46.7833 342.205 44.6083 340.439 43.175C338.672 41.7417 336.447 41.025 333.764 41.025C331.364 41.025 329.297 41.6167 327.564 42.8C325.847 43.9833 324.539 45.6583 323.639 47.825C322.755 49.9917 322.314 52.5333 322.314 55.45C322.314 58.6167 322.764 61.2833 323.664 63.45C324.58 65.6167 325.889 67.25 327.589 68.35C329.305 69.4333 331.355 69.975 333.739 69.975C336.672 69.975 339.039 69.1667 340.839 67.55C342.639 65.9333 343.697 63.6 344.014 60.55C344.064 60.3167 344.197 60.2 344.414 60.2H348.364C348.497 60.2 348.589 60.2417 348.639 60.325C348.705 60.4083 348.722 60.5167 348.689 60.65C348.072 64.9667 346.464 68.2083 343.864 70.375C341.28 72.5417 337.939 73.625 333.839 73.625ZM362.797 72.625C362.797 72.875 362.68 73 362.447 73H358.272C358.039 73 357.922 72.875 357.922 72.625L358.122 55.675L357.972 41.55H348.172C347.939 41.55 347.822 41.4333 347.822 41.2V38.375C347.822 38.125 347.939 38 348.172 38H372.547C372.664 38 372.755 38.0333 372.822 38.1C372.889 38.1667 372.922 38.2583 372.922 38.375V41.2C372.922 41.4333 372.797 41.55 372.547 41.55H362.747L362.597 55.675L362.797 72.625ZM375.307 72.975C375.057 72.975 374.932 72.8583 374.932 72.625L375.107 55.675L374.932 38.35C374.932 38.1 375.057 37.975 375.307 37.975H379.357C379.59 37.975 379.707 38.1 379.707 38.35L379.607 51.525L386.582 51.5C391.082 51.4833 394.398 52.4333 396.532 54.35C398.682 56.2667 399.757 58.9167 399.757 62.3C399.757 65.8667 398.573 68.5417 396.207 70.325C393.857 72.0917 390.573 72.975 386.357 72.975H375.307ZM379.557 55.05L379.682 69.45H386.432C389.198 69.45 391.323 68.8667 392.807 67.7C394.307 66.5333 395.057 64.725 395.057 62.275C395.057 59.7417 394.29 57.9 392.757 56.75C391.223 55.5833 389.19 55.0083 386.657 55.025L379.557 55.05Z" fill="black"/>
<path d="M88.8613 119C88.6113 119 88.4863 118.875 88.4863 118.625L88.6363 100.975L88.5113 84.375C88.5113 84.125 88.628 84 88.8613 84H92.8863C93.1197 84 93.2363 84.125 93.2363 84.375L93.1363 98.45H98.2113L107.211 84.25C107.311 84.0833 107.453 84 107.636 84H111.886C112.086 84 112.186 84.075 112.186 84.225C112.186 84.2917 112.161 84.3667 112.111 84.45L102.036 99.725L114.261 118.55C114.311 118.617 114.336 118.692 114.336 118.775C114.336 118.925 114.236 119 114.036 119H109.186C109.003 119 108.861 118.917 108.761 118.75L98.1863 102.025H93.1363L93.2363 118.625C93.2363 118.875 93.1197 119 92.8863 119H88.8613ZM128.237 119.625C124.904 119.625 121.97 118.883 119.437 117.4C116.92 115.9 114.97 113.783 113.587 111.05C112.204 108.317 111.512 105.142 111.512 101.525C111.512 97.8417 112.204 94.6333 113.587 91.9C114.97 89.1667 116.92 87.0667 119.437 85.6C121.97 84.1167 124.912 83.375 128.262 83.375C131.612 83.375 134.545 84.1083 137.062 85.575C139.579 87.0417 141.529 89.1417 142.912 91.875C144.295 94.6083 144.987 97.8333 144.987 101.55C144.987 105.167 144.287 108.342 142.887 111.075C141.504 113.808 139.545 115.917 137.012 117.4C134.495 118.883 131.57 119.625 128.237 119.625ZM128.262 115.975C130.712 115.975 132.829 115.4 134.612 114.25C136.412 113.1 137.787 111.442 138.737 109.275C139.687 107.108 140.162 104.533 140.162 101.55C140.162 98.5667 139.687 95.9833 138.737 93.8C137.787 91.6167 136.412 89.9417 134.612 88.775C132.829 87.6083 130.704 87.025 128.237 87.025C125.77 87.025 123.637 87.6083 121.837 88.775C120.054 89.925 118.687 91.5917 117.737 93.775C116.804 95.9417 116.337 98.5333 116.337 101.55C116.337 104.517 116.812 107.083 117.762 109.25C118.729 111.417 120.104 113.083 121.887 114.25C123.687 115.4 125.812 115.975 128.262 115.975ZM151.918 118.625C151.918 118.875 151.793 119 151.543 119H147.943C147.693 119 147.568 118.875 147.568 118.625L147.718 101.85L147.593 84.375C147.593 84.125 147.718 84 147.968 84H153.618C153.818 84 153.96 84.1 154.043 84.3L165.193 113.1L176.068 84.3C176.152 84.1 176.285 84 176.468 84H181.768C182.018 84 182.143 84.125 182.143 84.375L182.018 101.85L182.168 118.625C182.168 118.875 182.043 119 181.793 119H177.818C177.568 119 177.443 118.875 177.443 118.625L177.493 103.2L177.643 90.25L166.868 118.7C166.785 118.9 166.643 119 166.443 119H163.318C163.102 119 162.952 118.9 162.868 118.7L151.668 89.85L151.868 103.2L151.918 118.625ZM201.079 119.675C200.846 119.675 200.729 119.55 200.729 119.3L200.754 116.4C197.138 116.283 194.129 115.558 191.729 114.225C189.346 112.875 187.588 111.083 186.454 108.85C185.321 106.617 184.754 104.083 184.754 101.25C184.754 98.4 185.321 95.875 186.454 93.675C187.588 91.4583 189.346 89.6917 191.729 88.375C194.129 87.0583 197.138 86.3417 200.754 86.225L200.729 83.7C200.729 83.45 200.854 83.325 201.104 83.325H205.129C205.379 83.325 205.504 83.45 205.504 83.7L205.454 86.225C209.071 86.3417 212.071 87.0583 214.454 88.375C216.838 89.6917 218.588 91.4583 219.704 93.675C220.838 95.875 221.404 98.4083 221.404 101.275C221.404 104.075 220.829 106.583 219.679 108.8C218.546 111.017 216.788 112.808 214.404 114.175C212.021 115.525 209.038 116.267 205.454 116.4L205.479 119.3C205.479 119.55 205.354 119.675 205.104 119.675H201.079ZM200.879 102.275L200.804 89.65C196.921 89.8 194.071 90.9167 192.254 93C190.438 95.0667 189.529 97.825 189.529 101.275C189.529 104.742 190.438 107.525 192.254 109.625C194.071 111.708 196.913 112.825 200.779 112.975L200.879 102.275ZM205.404 112.975C209.254 112.808 212.088 111.658 213.904 109.525C215.738 107.392 216.654 104.592 216.654 101.125C216.654 97.725 215.746 95.0083 213.929 92.975C212.113 90.925 209.279 89.8167 205.429 89.65L205.329 102.225L205.404 112.975ZM240.102 119.625C236.769 119.625 233.836 118.883 231.302 117.4C228.786 115.9 226.836 113.783 225.452 111.05C224.069 108.317 223.377 105.142 223.377 101.525C223.377 97.8417 224.069 94.6333 225.452 91.9C226.836 89.1667 228.786 87.0667 231.302 85.6C233.836 84.1167 236.777 83.375 240.127 83.375C243.477 83.375 246.411 84.1083 248.927 85.575C251.444 87.0417 253.394 89.1417 254.777 91.875C256.161 94.6083 256.852 97.8333 256.852 101.55C256.852 105.167 256.152 108.342 254.752 111.075C253.369 113.808 251.411 115.917 248.877 117.4C246.361 118.883 243.436 119.625 240.102 119.625ZM240.127 115.975C242.577 115.975 244.694 115.4 246.477 114.25C248.277 113.1 249.652 111.442 250.602 109.275C251.552 107.108 252.027 104.533 252.027 101.55C252.027 98.5667 251.552 95.9833 250.602 93.8C249.652 91.6167 248.277 89.9417 246.477 88.775C244.694 87.6083 242.569 87.025 240.102 87.025C237.636 87.025 235.502 87.6083 233.702 88.775C231.919 89.925 230.552 91.5917 229.602 93.775C228.669 95.9417 228.202 98.5333 228.202 101.55C228.202 104.517 228.677 107.083 229.627 109.25C230.594 111.417 231.969 113.083 233.752 114.25C235.552 115.4 237.677 115.975 240.127 115.975ZM259.809 119C259.559 119 259.434 118.875 259.434 118.625L259.584 101.025L259.434 84.375C259.434 84.125 259.559 84 259.809 84H271.309C275.225 84 278.284 84.9083 280.484 86.725C282.684 88.525 283.784 91.15 283.784 94.6C283.784 96.9833 283.275 98.9917 282.259 100.625C281.242 102.242 279.8 103.458 277.934 104.275C276.084 105.092 273.9 105.5 271.384 105.5H264.109L264.209 118.625C264.209 118.875 264.092 119 263.859 119H259.809ZM264.184 87.5L264.084 102.025H271.684C274.05 102.025 275.892 101.442 277.209 100.275C278.542 99.0917 279.209 97.225 279.209 94.675C279.209 92.275 278.542 90.4833 277.209 89.3C275.892 88.1 273.984 87.5 271.484 87.5H264.184ZM298.617 118.625C298.617 118.875 298.501 119 298.267 119H294.092C293.859 119 293.742 118.875 293.742 118.625L293.942 101.675L293.792 87.55H283.992C283.759 87.55 283.642 87.4333 283.642 87.2V84.375C283.642 84.125 283.759 84 283.992 84H308.367C308.484 84 308.576 84.0333 308.642 84.1C308.709 84.1667 308.742 84.2583 308.742 84.375V87.2C308.742 87.4333 308.617 87.55 308.367 87.55H298.567L298.417 101.675L298.617 118.625Z" fill="black"/>
<path d="M73.5113 117.55C73.578 117.617 73.6113 117.692 73.6113 117.775C73.6113 117.842 73.578 117.9 73.5113 117.95C73.4613 117.983 73.3863 118 73.2863 118H68.6113C68.428 118 68.278 117.933 68.1613 117.8L64.9113 114.225C63.5447 115.625 61.9697 116.7 60.1863 117.45C58.4197 118.2 56.5113 118.575 54.4613 118.575C52.3447 118.575 50.378 118.2 48.5613 117.45C46.7447 116.683 45.2863 115.558 44.1863 114.075C43.0863 112.592 42.5363 110.808 42.5363 108.725C42.5363 107.008 42.903 105.5 43.6363 104.2C44.3863 102.883 45.353 101.75 46.5363 100.8C47.7197 99.85 49.1447 98.9167 50.8113 98C49.5113 96.4333 48.5363 95 47.8863 93.7C47.253 92.3833 46.9363 91.0333 46.9363 89.65C46.9363 88.2833 47.2863 87.0417 47.9863 85.925C48.6863 84.7917 49.7197 83.8917 51.0863 83.225C52.453 82.5417 54.078 82.2 55.9613 82.2C57.5947 82.2 59.0697 82.5 60.3863 83.1C61.7197 83.6833 62.7697 84.5333 63.5363 85.65C64.303 86.75 64.6947 88.0417 64.7113 89.525C64.7113 90.9083 64.353 92.1333 63.6363 93.2C62.9197 94.2667 62.0113 95.1917 60.9113 95.975C59.828 96.7417 58.4197 97.6 56.6863 98.55C56.803 98.6833 56.9447 98.85 57.1113 99.05C57.278 99.2333 57.478 99.4417 57.7113 99.675C58.128 100.158 58.603 100.7 59.1363 101.3C59.6697 101.9 60.253 102.567 60.8863 103.3L65.1113 107.875C66.1613 105.642 66.7613 103.067 66.9113 100.15C66.9113 99.9167 67.028 99.8 67.2613 99.8H70.7613C70.878 99.8 70.9697 99.8417 71.0363 99.925C71.103 100.008 71.128 100.108 71.1113 100.225C70.9613 102.292 70.603 104.25 70.0363 106.1C69.4863 107.933 68.7447 109.592 67.8113 111.075L73.5113 117.55ZM51.3113 89.75C51.3113 90.7333 51.553 91.6833 52.0363 92.6C52.5197 93.5 53.3613 94.6583 54.5613 96.075C55.9113 95.3417 57.0113 94.675 57.8613 94.075C58.728 93.475 59.428 92.8 59.9613 92.05C60.5113 91.2833 60.7863 90.425 60.7863 89.475C60.7863 88.125 60.353 87.0583 59.4863 86.275C58.6197 85.475 57.453 85.075 55.9863 85.075C54.503 85.075 53.353 85.4667 52.5363 86.25C51.7197 87.0333 51.3113 88.2 51.3113 89.75ZM54.8363 115.3C56.4197 115.3 57.878 114.975 59.2113 114.325C60.5447 113.675 61.7113 112.75 62.7113 111.55L55.4613 103.3L53.0363 100.6C51.1363 101.75 49.6697 102.933 48.6363 104.15C47.603 105.35 47.0863 106.817 47.0863 108.55C47.0863 109.967 47.403 111.183 48.0363 112.2C48.6863 113.217 49.5947 113.992 50.7613 114.525C51.928 115.042 53.2863 115.3 54.8363 115.3Z" fill="black"/>
<path d="M63.9863 267.625C63.9863 267.875 63.8613 268 63.6113 268H42.2363C42.1197 268 42.028 267.967 41.9613 267.9C41.8947 267.833 41.8613 267.742 41.8613 267.625V263.45C41.8613 261.133 42.3447 259.192 43.3113 257.625C44.278 256.042 45.4447 254.775 46.8113 253.825C48.1947 252.875 49.9947 251.825 52.2113 250.675C53.978 249.758 55.353 248.983 56.3363 248.35C57.3363 247.7 58.1697 246.908 58.8363 245.975C59.5197 245.042 59.8613 243.942 59.8613 242.675C59.8947 241.358 59.6613 240.192 59.1613 239.175C58.678 238.158 57.928 237.367 56.9113 236.8C55.9113 236.217 54.678 235.925 53.2113 235.925C51.0113 235.925 49.2863 236.658 48.0363 238.125C46.803 239.575 46.1363 241.708 46.0363 244.525C46.0363 244.775 45.9197 244.9 45.6863 244.9H42.1613C41.9113 244.9 41.7863 244.775 41.7863 244.525C41.853 240.625 42.853 237.642 44.7863 235.575C46.7363 233.492 49.5447 232.442 53.2113 232.425C55.5447 232.425 57.528 232.833 59.1613 233.65C60.7947 234.45 62.0363 235.608 62.8863 237.125C63.753 238.642 64.203 240.45 64.2363 242.55C64.2363 244.633 63.7697 246.4 62.8363 247.85C61.9197 249.283 60.803 250.45 59.4863 251.35C58.1697 252.25 56.428 253.258 54.2613 254.375C52.4447 255.308 51.0113 256.117 49.9613 256.8C48.9113 257.483 48.028 258.325 47.3113 259.325C46.6113 260.308 46.2613 261.475 46.2613 262.825V264.4H63.6113C63.728 264.4 63.8197 264.433 63.8863 264.5C63.953 264.567 63.9863 264.658 63.9863 264.775V267.625ZM78.2551 268.6C75.9217 268.6 73.8217 268.183 71.9551 267.35C70.1051 266.5 68.6467 265.3 67.5801 263.75C66.5301 262.183 66.0051 260.375 66.0051 258.325C66.0051 256.175 66.6134 254.308 67.8301 252.725C69.0634 251.125 70.7717 250.017 72.9551 249.4C71.1217 248.767 69.7134 247.767 68.7301 246.4C67.7467 245.017 67.2551 243.433 67.2551 241.65C67.2551 239.767 67.7051 238.125 68.6051 236.725C69.5051 235.325 70.7801 234.25 72.4301 233.5C74.0967 232.75 76.0384 232.375 78.2551 232.375C80.4884 232.375 82.4384 232.75 84.1051 233.5C85.7717 234.25 87.0551 235.325 87.9551 236.725C88.8551 238.125 89.3051 239.758 89.3051 241.625C89.3051 243.308 88.7884 244.867 87.7551 246.3C86.7384 247.717 85.3051 248.75 83.4551 249.4C85.6884 250.017 87.4301 251.125 88.6801 252.725C89.9301 254.308 90.5551 256.175 90.5551 258.325C90.5551 260.375 90.0217 262.183 88.9551 263.75C87.8884 265.3 86.4217 266.5 84.5551 267.35C82.6884 268.183 80.5884 268.6 78.2551 268.6ZM78.2551 247.975C79.5551 247.975 80.6967 247.7 81.6801 247.15C82.6634 246.6 83.4134 245.875 83.9301 244.975C84.4634 244.058 84.7301 243.067 84.7301 242C84.7301 240.7 84.4551 239.575 83.9051 238.625C83.3717 237.675 82.6134 236.95 81.6301 236.45C80.6634 235.933 79.5384 235.675 78.2551 235.675C76.9717 235.675 75.8467 235.933 74.8801 236.45C73.9134 236.95 73.1551 237.683 72.6051 238.65C72.0717 239.617 71.8051 240.767 71.8051 242.1C71.8051 243.217 72.0634 244.225 72.5801 245.125C73.1134 246.008 73.8634 246.708 74.8301 247.225C75.8134 247.725 76.9551 247.975 78.2551 247.975ZM78.2551 265.275C79.7551 265.275 81.0801 264.975 82.2301 264.375C83.3967 263.775 84.2967 262.95 84.9301 261.9C85.5634 260.85 85.8801 259.65 85.8801 258.3C85.8801 256.867 85.5717 255.608 84.9551 254.525C84.3551 253.442 83.4801 252.6 82.3301 252C81.1801 251.383 79.8217 251.067 78.2551 251.05C76.6884 251.067 75.3301 251.383 74.1801 252C73.0467 252.6 72.1717 253.45 71.5551 254.55C70.9551 255.633 70.6551 256.883 70.6551 258.3C70.6551 259.65 70.9717 260.85 71.6051 261.9C72.2384 262.95 73.1301 263.775 74.2801 264.375C75.4301 264.975 76.7551 265.275 78.2551 265.275ZM97.3723 267.625C97.3723 267.875 97.2473 268 96.9973 268H92.6473C92.4139 268 92.2973 267.875 92.2973 267.625V263.325C92.2973 263.075 92.4139 262.95 92.6473 262.95H96.9973C97.1139 262.95 97.2056 262.983 97.2723 263.05C97.3389 263.117 97.3723 263.208 97.3723 263.325V267.625ZM102.65 268C102.416 268 102.3 267.875 102.3 267.625L102.35 251.25L102.325 238.2C100.441 239.917 98.0829 241.242 95.2496 242.175C95.2163 242.192 95.1746 242.2 95.1246 242.2C95.0413 242.2 94.9746 242.167 94.9246 242.1C94.8746 242.033 94.8496 241.958 94.8496 241.875V238.95C94.8496 238.733 94.9413 238.592 95.1246 238.525C96.6413 237.958 98.0246 237.217 99.2746 236.3C100.541 235.383 101.583 234.367 102.4 233.25C102.516 233.083 102.666 233 102.85 233H106.65C106.883 233 107 233.125 107 233.375L106.95 251.325L107 267.625C107 267.875 106.883 268 106.65 268H102.65ZM117.786 268C117.553 268 117.436 267.875 117.436 267.625L117.486 251.25L117.461 238.2C115.578 239.917 113.22 241.242 110.386 242.175C110.353 242.192 110.311 242.2 110.261 242.2C110.178 242.2 110.111 242.167 110.061 242.1C110.011 242.033 109.986 241.958 109.986 241.875V238.95C109.986 238.733 110.078 238.592 110.261 238.525C111.778 237.958 113.161 237.217 114.411 236.3C115.678 235.383 116.72 234.367 117.536 233.25C117.653 233.083 117.803 233 117.986 233H121.786C122.02 233 122.136 233.125 122.136 233.375L122.086 251.325L122.136 267.625C122.136 267.875 122.02 268 121.786 268H117.786ZM130.917 267.625C130.917 267.875 130.792 268 130.542 268H126.192C125.959 268 125.842 267.875 125.842 267.625V263.325C125.842 263.075 125.959 262.95 126.192 262.95H130.542C130.659 262.95 130.751 262.983 130.817 263.05C130.884 263.117 130.917 263.208 130.917 263.325V267.625ZM155.393 267.625C155.393 267.875 155.268 268 155.018 268H133.643C133.526 268 133.434 267.967 133.368 267.9C133.301 267.833 133.268 267.742 133.268 267.625V263.45C133.268 261.133 133.751 259.192 134.718 257.625C135.684 256.042 136.851 254.775 138.218 253.825C139.601 252.875 141.401 251.825 143.618 250.675C145.384 249.758 146.759 248.983 147.743 248.35C148.743 247.7 149.576 246.908 150.243 245.975C150.926 245.042 151.268 243.942 151.268 242.675C151.301 241.358 151.068 240.192 150.568 239.175C150.084 238.158 149.334 237.367 148.318 236.8C147.318 236.217 146.084 235.925 144.618 235.925C142.418 235.925 140.693 236.658 139.443 238.125C138.209 239.575 137.543 241.708 137.443 244.525C137.443 244.775 137.326 244.9 137.093 244.9H133.568C133.318 244.9 133.193 244.775 133.193 244.525C133.259 240.625 134.259 237.642 136.193 235.575C138.143 233.492 140.951 232.442 144.618 232.425C146.951 232.425 148.934 232.833 150.568 233.65C152.201 234.45 153.443 235.608 154.293 237.125C155.159 238.642 155.609 240.45 155.643 242.55C155.643 244.633 155.176 246.4 154.243 247.85C153.326 249.283 152.209 250.45 150.893 251.35C149.576 252.25 147.834 253.258 145.668 254.375C143.851 255.308 142.418 256.117 141.368 256.8C140.318 257.483 139.434 258.325 138.718 259.325C138.018 260.308 137.668 261.475 137.668 262.825V264.4H155.018C155.134 264.4 155.226 264.433 155.293 264.5C155.359 264.567 155.393 264.658 155.393 264.775V267.625ZM169.986 268.625C167.47 268.625 165.261 267.908 163.361 266.475C161.461 265.042 159.995 262.967 158.961 260.25C157.928 257.533 157.411 254.292 157.411 250.525C157.411 246.692 157.928 243.417 158.961 240.7C159.995 237.967 161.453 235.9 163.336 234.5C165.236 233.083 167.461 232.375 170.011 232.375C172.561 232.375 174.786 233.075 176.686 234.475C178.586 235.875 180.053 237.942 181.086 240.675C182.12 243.392 182.636 246.683 182.636 250.55C182.636 254.317 182.111 257.558 181.061 260.275C180.028 262.992 178.561 265.067 176.661 266.5C174.761 267.917 172.536 268.625 169.986 268.625ZM170.011 264.925C172.478 264.925 174.395 263.708 175.761 261.275C177.128 258.825 177.811 255.25 177.811 250.55C177.811 247.4 177.495 244.75 176.861 242.6C176.245 240.433 175.353 238.808 174.186 237.725C173.02 236.625 171.62 236.075 169.986 236.075C167.503 236.075 165.586 237.3 164.236 239.75C162.903 242.2 162.236 245.8 162.236 250.55C162.236 253.667 162.545 256.3 163.161 258.45C163.795 260.6 164.686 262.217 165.836 263.3C167.003 264.383 168.395 264.925 170.011 264.925ZM206.711 267.625C206.711 267.875 206.586 268 206.336 268H184.961C184.844 268 184.753 267.967 184.686 267.9C184.619 267.833 184.586 267.742 184.586 267.625V263.45C184.586 261.133 185.069 259.192 186.036 257.625C187.003 256.042 188.169 254.775 189.536 253.825C190.919 252.875 192.719 251.825 194.936 250.675C196.703 249.758 198.078 248.983 199.061 248.35C200.061 247.7 200.894 246.908 201.561 245.975C202.244 245.042 202.586 243.942 202.586 242.675C202.619 241.358 202.386 240.192 201.886 239.175C201.403 238.158 200.653 237.367 199.636 236.8C198.636 236.217 197.403 235.925 195.936 235.925C193.736 235.925 192.011 236.658 190.761 238.125C189.528 239.575 188.861 241.708 188.761 244.525C188.761 244.775 188.644 244.9 188.411 244.9H184.886C184.636 244.9 184.511 244.775 184.511 244.525C184.578 240.625 185.578 237.642 187.511 235.575C189.461 233.492 192.269 232.442 195.936 232.425C198.269 232.425 200.253 232.833 201.886 233.65C203.519 234.45 204.761 235.608 205.611 237.125C206.478 238.642 206.928 240.45 206.961 242.55C206.961 244.633 206.494 246.4 205.561 247.85C204.644 249.283 203.528 250.45 202.211 251.35C200.894 252.25 199.153 253.258 196.986 254.375C195.169 255.308 193.736 256.117 192.686 256.8C191.636 257.483 190.753 258.325 190.036 259.325C189.336 260.308 188.986 261.475 188.986 262.825V264.4H206.336C206.453 264.4 206.544 264.433 206.611 264.5C206.678 264.567 206.711 264.658 206.711 264.775V267.625ZM220.107 268.65C216.64 268.65 213.94 267.767 212.007 266C210.09 264.233 208.974 261.792 208.657 258.675V258.625C208.657 258.408 208.774 258.3 209.007 258.3H212.932C213.182 258.3 213.307 258.425 213.307 258.675C213.457 260.692 214.107 262.3 215.257 263.5C216.424 264.683 218.032 265.275 220.082 265.275C221.582 265.275 222.882 264.892 223.982 264.125C225.082 263.358 225.932 262.25 226.532 260.8C227.132 259.333 227.432 257.592 227.432 255.575C227.432 252.592 226.824 250.317 225.607 248.75C224.39 247.183 222.649 246.4 220.382 246.4C218.582 246.4 217.115 246.858 215.982 247.775C214.849 248.675 214.074 249.975 213.657 251.675C213.607 251.892 213.482 252 213.282 252H209.832C209.582 252 209.457 251.875 209.457 251.625L210.682 233.35C210.682 233.117 210.799 233 211.032 233H229.707C229.94 233 230.057 233.125 230.057 233.375V236.225C230.057 236.475 229.94 236.6 229.707 236.6H214.707L213.957 246.3C214.94 245.2 216.049 244.375 217.282 243.825C218.515 243.258 219.949 242.975 221.582 242.975C223.649 242.975 225.499 243.475 227.132 244.475C228.765 245.475 230.04 246.908 230.957 248.775C231.89 250.625 232.357 252.8 232.357 255.3C232.357 257.983 231.84 260.333 230.807 262.35C229.79 264.367 228.357 265.925 226.507 267.025C224.657 268.108 222.524 268.65 220.107 268.65Z" fill="black"/>
<path d="M292.036 313C291.803 313 291.686 312.875 291.686 312.625L291.736 296.25L291.711 283.2C289.828 284.917 287.47 286.242 284.636 287.175C284.603 287.192 284.561 287.2 284.511 287.2C284.428 287.2 284.361 287.167 284.311 287.1C284.261 287.033 284.236 286.958 284.236 286.875V283.95C284.236 283.733 284.328 283.592 284.511 283.525C286.028 282.958 287.411 282.217 288.661 281.3C289.928 280.383 290.97 279.367 291.786 278.25C291.903 278.083 292.053 278 292.236 278H296.036C296.27 278 296.386 278.125 296.386 278.375L296.336 296.325L296.386 312.625C296.386 312.875 296.27 313 296.036 313H292.036ZM320.592 299.9H323.967C324.217 299.9 324.342 300.017 324.342 300.25V303.125C324.342 303.242 324.309 303.333 324.242 303.4C324.176 303.467 324.084 303.5 323.967 303.5H320.592V312.65C320.592 312.767 320.559 312.858 320.492 312.925C320.426 312.992 320.334 313.025 320.217 313.025H316.292C316.059 313.025 315.942 312.9 315.942 312.65V303.5H300.042C299.809 303.5 299.692 303.375 299.692 303.125V299.8C299.692 299.633 299.734 299.492 299.817 299.375L313.942 278.25C314.042 278.083 314.184 278 314.367 278H320.217C320.334 278 320.426 278.033 320.492 278.1C320.559 278.167 320.592 278.258 320.592 278.375V299.9ZM315.942 299.9V289.1L316.067 281.375L303.692 299.9H315.942ZM330.9 312.625C330.9 312.875 330.775 313 330.525 313H326.175C325.941 313 325.825 312.875 325.825 312.625V308.325C325.825 308.075 325.941 307.95 326.175 307.95H330.525C330.641 307.95 330.733 307.983 330.8 308.05C330.866 308.117 330.9 308.208 330.9 308.325V312.625ZM344.236 313.625C341.72 313.625 339.511 312.908 337.611 311.475C335.711 310.042 334.245 307.967 333.211 305.25C332.178 302.533 331.661 299.292 331.661 295.525C331.661 291.692 332.178 288.417 333.211 285.7C334.245 282.967 335.703 280.9 337.586 279.5C339.486 278.083 341.711 277.375 344.261 277.375C346.811 277.375 349.036 278.075 350.936 279.475C352.836 280.875 354.303 282.942 355.336 285.675C356.37 288.392 356.886 291.683 356.886 295.55C356.886 299.317 356.361 302.558 355.311 305.275C354.278 307.992 352.811 310.067 350.911 311.5C349.011 312.917 346.786 313.625 344.236 313.625ZM344.261 309.925C346.728 309.925 348.645 308.708 350.011 306.275C351.378 303.825 352.061 300.25 352.061 295.55C352.061 292.4 351.745 289.75 351.111 287.6C350.495 285.433 349.603 283.808 348.436 282.725C347.27 281.625 345.87 281.075 344.236 281.075C341.753 281.075 339.836 282.3 338.486 284.75C337.153 287.2 336.486 290.8 336.486 295.55C336.486 298.667 336.795 301.3 337.411 303.45C338.045 305.6 338.936 307.217 340.086 308.3C341.253 309.383 342.645 309.925 344.261 309.925ZM371.58 313.625C369.063 313.625 366.855 312.908 364.955 311.475C363.055 310.042 361.588 307.967 360.555 305.25C359.522 302.533 359.005 299.292 359.005 295.525C359.005 291.692 359.522 288.417 360.555 285.7C361.588 282.967 363.047 280.9 364.93 279.5C366.83 278.083 369.055 277.375 371.605 277.375C374.155 277.375 376.38 278.075 378.28 279.475C380.18 280.875 381.647 282.942 382.68 285.675C383.713 288.392 384.23 291.683 384.23 295.55C384.23 299.317 383.705 302.558 382.655 305.275C381.622 307.992 380.155 310.067 378.255 311.5C376.355 312.917 374.13 313.625 371.58 313.625ZM371.605 309.925C374.072 309.925 375.988 308.708 377.355 306.275C378.722 303.825 379.405 300.25 379.405 295.55C379.405 292.4 379.088 289.75 378.455 287.6C377.838 285.433 376.947 283.808 375.78 282.725C374.613 281.625 373.213 281.075 371.58 281.075C369.097 281.075 367.18 282.3 365.83 284.75C364.497 287.2 363.83 290.8 363.83 295.55C363.83 298.667 364.138 301.3 364.755 303.45C365.388 305.6 366.28 307.217 367.43 308.3C368.597 309.383 369.988 309.925 371.605 309.925ZM405.3 299.85C405.3 300.083 405.175 300.2 404.925 300.2H394.425C394.175 300.2 394.05 300.083 394.05 299.85V297.175C394.05 296.942 394.175 296.825 394.425 296.825H404.925C405.175 296.825 405.3 296.942 405.3 297.175V299.85ZM422.359 313C422.125 313 422.009 312.875 422.009 312.625L422.059 296.25L422.034 283.2C420.15 284.917 417.792 286.242 414.959 287.175C414.925 287.192 414.884 287.2 414.834 287.2C414.75 287.2 414.684 287.167 414.634 287.1C414.584 287.033 414.559 286.958 414.559 286.875V283.95C414.559 283.733 414.65 283.592 414.834 283.525C416.35 282.958 417.734 282.217 418.984 281.3C420.25 280.383 421.292 279.367 422.109 278.25C422.225 278.083 422.375 278 422.559 278H426.359C426.592 278 426.709 278.125 426.709 278.375L426.659 296.325L426.709 312.625C426.709 312.875 426.592 313 426.359 313H422.359ZM442.964 313.625C438.998 313.625 435.931 312.133 433.764 309.15C431.614 306.167 430.539 301.683 430.539 295.7C430.539 291.85 431.056 288.55 432.089 285.8C433.139 283.05 434.631 280.958 436.564 279.525C438.498 278.092 440.781 277.375 443.414 277.375C446.398 277.375 448.739 278.108 450.439 279.575C452.139 281.025 453.164 283.15 453.514 285.95V286C453.514 286.233 453.398 286.35 453.164 286.35H449.264C449.048 286.35 448.923 286.233 448.889 286C448.706 284.4 448.131 283.133 447.164 282.2C446.198 281.25 444.848 280.775 443.114 280.775C441.498 280.775 440.106 281.308 438.939 282.375C437.789 283.442 436.906 284.975 436.289 286.975C435.673 288.958 435.364 291.317 435.364 294.05C436.164 292.617 437.289 291.525 438.739 290.775C440.189 290.008 441.898 289.625 443.864 289.625C446.031 289.625 447.931 290.083 449.564 291C451.198 291.9 452.464 293.2 453.364 294.9C454.281 296.6 454.739 298.6 454.739 300.9C454.739 303.283 454.231 305.45 453.214 307.4C452.198 309.333 450.789 310.858 448.989 311.975C447.206 313.075 445.198 313.625 442.964 313.625ZM442.764 310.125C445.014 310.125 446.764 309.358 448.014 307.825C449.264 306.275 449.889 304.133 449.889 301.4C449.856 298.817 449.248 296.783 448.064 295.3C446.898 293.817 445.198 293.075 442.964 293.075C440.681 293.075 438.898 293.792 437.614 295.225C436.331 296.658 435.689 298.65 435.689 301.2C435.689 302.9 435.964 304.425 436.514 305.775C437.081 307.125 437.898 308.192 438.964 308.975C440.031 309.742 441.298 310.125 442.764 310.125ZM461.271 312.625C461.271 312.875 461.146 313 460.896 313H456.546C456.312 313 456.196 312.875 456.196 312.625V308.325C456.196 308.075 456.312 307.95 456.546 307.95H460.896C461.012 307.95 461.104 307.983 461.171 308.05C461.237 308.117 461.271 308.208 461.271 308.325V312.625ZM474.433 313.5C470.849 313.5 468.074 312.558 466.108 310.675C464.141 308.792 463.049 306.025 462.833 302.375V302.325C462.833 302.225 462.866 302.15 462.933 302.1C462.999 302.033 463.083 302 463.183 302H466.983C467.233 302 467.358 302.125 467.358 302.375C467.458 304.908 468.091 306.842 469.258 308.175C470.441 309.508 472.183 310.175 474.483 310.175C476.899 310.175 478.741 309.5 480.008 308.15C481.291 306.8 481.933 304.967 481.933 302.65C481.933 300.417 481.233 298.742 479.833 297.625C478.449 296.492 476.374 295.925 473.608 295.925H471.908C471.658 295.925 471.533 295.808 471.533 295.575V293.1C471.533 292.867 471.658 292.75 471.908 292.75H473.608C476.124 292.75 478.024 292.233 479.308 291.2C480.591 290.15 481.233 288.7 481.233 286.85C481.233 285.617 480.958 284.55 480.408 283.65C479.874 282.733 479.124 282.033 478.158 281.55C477.208 281.067 476.124 280.825 474.908 280.825C470.458 280.825 468.083 283.267 467.783 288.15C467.783 288.4 467.658 288.525 467.408 288.525H463.683C463.566 288.525 463.474 288.492 463.408 288.425C463.341 288.358 463.316 288.267 463.333 288.15C463.433 285.867 463.974 283.933 464.958 282.35C465.941 280.75 467.299 279.542 469.033 278.725C470.766 277.908 472.783 277.5 475.083 277.5C477.166 277.5 479.016 277.858 480.633 278.575C482.266 279.292 483.541 280.325 484.458 281.675C485.391 283.025 485.858 284.608 485.858 286.425C485.858 288.492 485.308 290.15 484.208 291.4C483.108 292.633 481.649 293.542 479.833 294.125C481.966 294.592 483.641 295.583 484.858 297.1C486.091 298.6 486.708 300.467 486.708 302.7C486.708 304.85 486.183 306.742 485.133 308.375C484.099 310.008 482.649 311.275 480.783 312.175C478.933 313.058 476.816 313.5 474.433 313.5ZM501.365 313.625C498.849 313.625 496.64 312.908 494.74 311.475C492.84 310.042 491.374 307.967 490.34 305.25C489.307 302.533 488.79 299.292 488.79 295.525C488.79 291.692 489.307 288.417 490.34 285.7C491.374 282.967 492.832 280.9 494.715 279.5C496.615 278.083 498.84 277.375 501.39 277.375C503.94 277.375 506.165 278.075 508.065 279.475C509.965 280.875 511.432 282.942 512.465 285.675C513.499 288.392 514.015 291.683 514.015 295.55C514.015 299.317 513.49 302.558 512.44 305.275C511.407 307.992 509.94 310.067 508.04 311.5C506.14 312.917 503.915 313.625 501.365 313.625ZM501.39 309.925C503.857 309.925 505.774 308.708 507.14 306.275C508.507 303.825 509.19 300.25 509.19 295.55C509.19 292.4 508.874 289.75 508.24 287.6C507.624 285.433 506.732 283.808 505.565 282.725C504.399 281.625 502.999 281.075 501.365 281.075C498.882 281.075 496.965 282.3 495.615 284.75C494.282 287.2 493.615 290.8 493.615 295.55C493.615 298.667 493.924 301.3 494.54 303.45C495.174 305.6 496.065 307.217 497.215 308.3C498.382 309.383 499.774 309.925 501.39 309.925Z" fill="black"/>
<path d="M41.8613 358C41.6113 358 41.4863 357.875 41.4863 357.625L41.6363 339.975L41.5113 323.375C41.5113 323.125 41.628 323 41.8613 323H45.8863C46.1197 323 46.2363 323.125 46.2363 323.375L46.1363 337.45H51.2113L60.2113 323.25C60.3113 323.083 60.453 323 60.6363 323H64.8863C65.0863 323 65.1863 323.075 65.1863 323.225C65.1863 323.292 65.1613 323.367 65.1113 323.45L55.0363 338.725L67.2613 357.55C67.3113 357.617 67.3363 357.692 67.3363 357.775C67.3363 357.925 67.2363 358 67.0363 358H62.1863C62.003 358 61.8613 357.917 61.7613 357.75L51.1863 341.025H46.1363L46.2363 357.625C46.2363 357.875 46.1197 358 45.8863 358H41.8613ZM99.0473 357.575C99.0639 357.625 99.0723 357.683 99.0723 357.75C99.0723 357.917 98.9639 358 98.7473 358H94.6473C94.4306 358 94.2973 357.9 94.2473 357.7L90.6973 347.425H76.4223L72.9223 357.7C72.8723 357.9 72.7389 358 72.5223 358H68.5223C68.3889 358 68.2973 357.967 68.2473 357.9C68.1973 357.817 68.1889 357.708 68.2223 357.575L80.5473 323.3C80.5973 323.1 80.7306 323 80.9473 323H86.4473C86.6473 323 86.7889 323.1 86.8723 323.3L99.0473 357.575ZM77.5973 343.675H89.4723L83.4973 326.3L77.5973 343.675ZM100.943 358C100.693 358 100.568 357.875 100.568 357.625L100.718 339.975L100.593 323.375C100.593 323.125 100.71 323 100.943 323H104.968C105.202 323 105.318 323.125 105.318 323.375L105.218 337.45H110.293L119.293 323.25C119.393 323.083 119.535 323 119.718 323H123.968C124.168 323 124.268 323.075 124.268 323.225C124.268 323.292 124.243 323.367 124.193 323.45L114.118 338.725L126.343 357.55C126.393 357.617 126.418 357.692 126.418 357.775C126.418 357.925 126.318 358 126.118 358H121.268C121.085 358 120.943 357.917 120.843 357.75L110.268 341.025H105.218L105.318 357.625C105.318 357.875 105.202 358 104.968 358H100.943ZM175.751 323C175.851 323 175.926 323.025 175.976 323.075C176.042 323.108 176.076 323.158 176.076 323.225C176.076 323.292 176.051 323.367 176.001 323.45L166.076 338.725L177.951 357.55C178.001 357.617 178.026 357.692 178.026 357.775C178.026 357.842 177.992 357.9 177.926 357.95C177.876 357.983 177.801 358 177.701 358H172.901C172.684 358 172.542 357.917 172.476 357.75L162.226 341H158.001L158.151 357.625C158.151 357.875 158.026 358 157.776 358H153.751C153.501 358 153.376 357.875 153.376 357.625L153.551 341H149.376L139.151 357.75C139.051 357.917 138.901 358 138.701 358H133.901C133.801 358 133.726 357.983 133.676 357.95C133.609 357.9 133.576 357.842 133.576 357.775C133.576 357.692 133.601 357.617 133.651 357.55L145.526 338.725L135.601 323.45C135.551 323.367 135.526 323.292 135.526 323.225C135.526 323.158 135.551 323.108 135.601 323.075C135.667 323.025 135.751 323 135.851 323H140.101C140.301 323 140.451 323.083 140.551 323.25L149.276 337.45H153.551L153.401 323.375C153.401 323.125 153.526 323 153.776 323H157.776C158.026 323 158.151 323.125 158.151 323.375L158.001 337.45H162.351L171.076 323.25C171.142 323.083 171.284 323 171.501 323H175.751ZM179.85 358C179.6 358 179.475 357.875 179.475 357.625L179.625 340.7L179.475 323.375C179.475 323.125 179.6 323 179.85 323H183.875C184.108 323 184.225 323.125 184.225 323.375L184.15 338.9L184.075 351.6L203 323.25C203.1 323.083 203.25 323 203.45 323H207.6C207.85 323 207.975 323.125 207.975 323.375L207.825 340.7L207.975 357.625C207.975 357.875 207.85 358 207.6 358H203.575C203.341 358 203.225 357.875 203.225 357.625L203.325 342.4L203.425 329.375L184.45 357.75C184.35 357.917 184.2 358 184 358H179.85ZM224.957 357.625C224.957 357.875 224.84 358 224.607 358H220.432C220.199 358 220.082 357.875 220.082 357.625L220.282 340.675L220.132 326.55H210.332C210.099 326.55 209.982 326.433 209.982 326.2V323.375C209.982 323.125 210.099 323 210.332 323H234.707C234.824 323 234.915 323.033 234.982 323.1C235.049 323.167 235.082 323.258 235.082 323.375V326.2C235.082 326.433 234.957 326.55 234.707 326.55H224.907L224.757 340.675L224.957 357.625ZM237.467 357.975C237.217 357.975 237.092 357.858 237.092 357.625L237.267 340.675L237.092 323.35C237.092 323.1 237.217 322.975 237.467 322.975H241.517C241.75 322.975 241.867 323.1 241.867 323.35L241.767 336.525L248.742 336.5C253.242 336.483 256.558 337.433 258.692 339.35C260.842 341.267 261.917 343.917 261.917 347.3C261.917 350.867 260.733 353.542 258.367 355.325C256.017 357.092 252.733 357.975 248.517 357.975H237.467ZM241.717 340.05L241.842 354.45H248.592C251.358 354.45 253.483 353.867 254.967 352.7C256.467 351.533 257.217 349.725 257.217 347.275C257.217 344.742 256.45 342.9 254.917 341.75C253.383 340.583 251.35 340.008 248.817 340.025L241.717 340.05ZM488.248 358C487.998 358 487.873 357.875 487.873 357.625L488.048 339.925L487.873 323.375C487.873 323.125 487.998 323 488.248 323H501.573C503.956 323 506.048 323.325 507.848 323.975C509.665 324.608 511.073 325.558 512.073 326.825C513.073 328.075 513.573 329.6 513.573 331.4C513.573 333.55 513.031 335.258 511.948 336.525C510.881 337.792 509.273 338.708 507.123 339.275C509.64 339.875 511.506 340.892 512.723 342.325C513.956 343.758 514.59 345.533 514.623 347.65C514.623 350.017 514.04 351.975 512.873 353.525C511.723 355.058 510.173 356.192 508.223 356.925C506.29 357.642 504.106 358 501.673 358H488.248ZM492.648 326.4L492.498 337.8H501.573C506.44 337.8 508.873 335.925 508.873 332.175C508.873 330.258 508.215 328.817 506.898 327.85C505.581 326.883 503.806 326.4 501.573 326.4H492.648ZM492.498 341.175L492.648 354.575H501.573C507.106 354.575 509.873 352.275 509.873 347.675C509.873 345.475 509.09 343.842 507.523 342.775C505.956 341.708 503.973 341.175 501.573 341.175H492.498Z" fill="black"/>
<path d="M46.2363 371.55L46.1613 381.625H54.0613C58.678 381.675 62.0197 382.625 64.0863 384.475C66.153 386.308 67.1863 388.925 67.1863 392.325C67.1863 395.842 66.003 398.5 63.6363 400.3C61.2863 402.1 58.0197 403 53.8363 403H41.8613C41.6113 403 41.4863 402.875 41.4863 402.625L41.6613 385.7L41.4863 368.375C41.4863 368.125 41.6113 368 41.8613 368H63.4363C63.6697 368 63.7863 368.125 63.7863 368.375V371.175C63.7863 371.425 63.6697 371.55 63.4363 371.55H46.2363ZM46.1363 385.175L46.2363 399.45H53.9363C59.653 399.45 62.5113 397.1 62.5113 392.4C62.5113 389.867 61.7697 388.033 60.2863 386.9C58.803 385.75 56.753 385.175 54.1363 385.175H46.1363ZM85.3875 403.625C82.0542 403.625 79.1208 402.883 76.5875 401.4C74.0708 399.9 72.1208 397.783 70.7375 395.05C69.3542 392.317 68.6625 389.142 68.6625 385.525C68.6625 381.842 69.3542 378.633 70.7375 375.9C72.1208 373.167 74.0708 371.067 76.5875 369.6C79.1208 368.117 82.0625 367.375 85.4125 367.375C88.7625 367.375 91.6958 368.108 94.2125 369.575C96.7292 371.042 98.6792 373.142 100.063 375.875C101.446 378.608 102.138 381.833 102.138 385.55C102.138 389.167 101.438 392.342 100.038 395.075C98.6542 397.808 96.6958 399.917 94.1625 401.4C91.6458 402.883 88.7208 403.625 85.3875 403.625ZM85.4125 399.975C87.8625 399.975 89.9792 399.4 91.7625 398.25C93.5625 397.1 94.9375 395.442 95.8875 393.275C96.8375 391.108 97.3125 388.533 97.3125 385.55C97.3125 382.567 96.8375 379.983 95.8875 377.8C94.9375 375.617 93.5625 373.942 91.7625 372.775C89.9792 371.608 87.8542 371.025 85.3875 371.025C82.9208 371.025 80.7875 371.608 78.9875 372.775C77.2042 373.925 75.8375 375.592 74.8875 377.775C73.9542 379.942 73.4875 382.533 73.4875 385.55C73.4875 388.517 73.9625 391.083 74.9125 393.25C75.8792 395.417 77.2542 397.083 79.0375 398.25C80.8375 399.4 82.9625 399.975 85.4125 399.975ZM102.2 403.3C101.416 403.3 100.691 403.225 100.025 403.075C99.8246 403.025 99.7246 402.883 99.7246 402.65V399.85C99.7246 399.717 99.7579 399.625 99.8246 399.575C99.9079 399.525 100.008 399.508 100.125 399.525C100.591 399.592 100.983 399.625 101.3 399.625C102.25 399.625 103 399.4 103.55 398.95C104.116 398.5 104.55 397.758 104.85 396.725C105.166 395.692 105.408 394.225 105.575 392.325C106.008 387.542 106.391 379.558 106.725 368.375C106.758 368.125 106.883 368 107.1 368H128.625C128.875 368 129 368.125 129 368.375L128.95 385.675L129.125 402.625C129.125 402.875 129.008 403 128.775 403H124.775C124.525 403 124.4 402.875 124.4 402.625L124.475 385.675L124.325 371.55H110.9C110.75 375.417 110.566 379.283 110.35 383.15C110.15 387 109.975 389.925 109.825 391.925C109.591 394.708 109.241 396.9 108.775 398.5C108.308 400.083 107.558 401.283 106.525 402.1C105.508 402.9 104.066 403.3 102.2 403.3ZM133.023 402.975C132.773 402.975 132.648 402.858 132.648 402.625L132.823 385.675L132.648 368.35C132.648 368.1 132.773 367.975 133.023 367.975H137.073C137.307 367.975 137.423 368.1 137.423 368.35L137.323 381.525L144.298 381.5C148.798 381.483 152.115 382.433 154.248 384.35C156.398 386.267 157.473 388.917 157.473 392.3C157.473 395.867 156.29 398.542 153.923 400.325C151.573 402.092 148.29 402.975 144.073 402.975H133.023ZM137.273 385.05L137.398 399.45H144.148C146.915 399.45 149.04 398.867 150.523 397.7C152.023 396.533 152.773 394.725 152.773 392.275C152.773 389.742 152.007 387.9 150.473 386.75C148.94 385.583 146.907 385.008 144.373 385.025L137.273 385.05ZM197.517 368.375C197.517 368.125 197.634 368 197.867 368H201.917C202.167 368 202.292 368.125 202.292 368.375L202.117 385.7L202.267 402.625C202.267 402.875 202.142 403 201.892 403H160.367C160.117 403 159.992 402.875 159.992 402.625L160.167 385.7L159.992 368.375C159.992 368.125 160.117 368 160.367 368H164.417C164.651 368 164.767 368.125 164.767 368.375L164.617 385.7L164.742 399.45H178.792L178.892 385.7L178.767 368.375C178.767 368.125 178.884 368 179.117 368H183.167C183.401 368 183.517 368.125 183.517 368.375L183.367 385.7L183.492 399.45H197.542L197.642 385.7L197.517 368.375ZM221.618 403.625C218.285 403.625 215.351 402.883 212.818 401.4C210.301 399.9 208.351 397.783 206.968 395.05C205.585 392.317 204.893 389.142 204.893 385.525C204.893 381.842 205.585 378.633 206.968 375.9C208.351 373.167 210.301 371.067 212.818 369.6C215.351 368.117 218.293 367.375 221.643 367.375C224.993 367.375 227.926 368.108 230.443 369.575C232.96 371.042 234.91 373.142 236.293 375.875C237.676 378.608 238.368 381.833 238.368 385.55C238.368 389.167 237.668 392.342 236.268 395.075C234.885 397.808 232.926 399.917 230.393 401.4C227.876 402.883 224.951 403.625 221.618 403.625ZM221.643 399.975C224.093 399.975 226.21 399.4 227.993 398.25C229.793 397.1 231.168 395.442 232.118 393.275C233.068 391.108 233.543 388.533 233.543 385.55C233.543 382.567 233.068 379.983 232.118 377.8C231.168 375.617 229.793 373.942 227.993 372.775C226.21 371.608 224.085 371.025 221.618 371.025C219.151 371.025 217.018 371.608 215.218 372.775C213.435 373.925 212.068 375.592 211.118 377.775C210.185 379.942 209.718 382.533 209.718 385.55C209.718 388.517 210.193 391.083 211.143 393.25C212.11 395.417 213.485 397.083 215.268 398.25C217.068 399.4 219.193 399.975 221.643 399.975ZM245.299 402.625C245.299 402.875 245.174 403 244.924 403H241.324C241.074 403 240.949 402.875 240.949 402.625L241.099 385.85L240.974 368.375C240.974 368.125 241.099 368 241.349 368H246.999C247.199 368 247.341 368.1 247.424 368.3L258.574 397.1L269.449 368.3C269.533 368.1 269.666 368 269.849 368H275.149C275.399 368 275.524 368.125 275.524 368.375L275.399 385.85L275.549 402.625C275.549 402.875 275.424 403 275.174 403H271.199C270.949 403 270.824 402.875 270.824 402.625L270.874 387.2L271.024 374.25L260.249 402.7C260.166 402.9 260.024 403 259.824 403H256.699C256.483 403 256.333 402.9 256.249 402.7L245.049 373.85L245.249 387.2L245.299 402.625ZM365.866 368C366.1 368 366.216 368.125 366.216 368.375V371.175C366.216 371.425 366.1 371.55 365.866 371.55H350.241L350.141 385.7L350.316 402.625C350.316 402.875 350.2 403 349.966 403H345.816C345.566 403 345.441 402.875 345.441 402.625L345.666 385.7L345.491 368.375C345.491 368.125 345.616 368 345.866 368H365.866ZM381.237 403.625C377.904 403.625 374.97 402.883 372.437 401.4C369.92 399.9 367.97 397.783 366.587 395.05C365.204 392.317 364.512 389.142 364.512 385.525C364.512 381.842 365.204 378.633 366.587 375.9C367.97 373.167 369.92 371.067 372.437 369.6C374.97 368.117 377.912 367.375 381.262 367.375C384.612 367.375 387.545 368.108 390.062 369.575C392.579 371.042 394.529 373.142 395.912 375.875C397.295 378.608 397.987 381.833 397.987 385.55C397.987 389.167 397.287 392.342 395.887 395.075C394.504 397.808 392.545 399.917 390.012 401.4C387.495 402.883 384.57 403.625 381.237 403.625ZM381.262 399.975C383.712 399.975 385.829 399.4 387.612 398.25C389.412 397.1 390.787 395.442 391.737 393.275C392.687 391.108 393.162 388.533 393.162 385.55C393.162 382.567 392.687 379.983 391.737 377.8C390.787 375.617 389.412 373.942 387.612 372.775C385.829 371.608 383.704 371.025 381.237 371.025C378.77 371.025 376.637 371.608 374.837 372.775C373.054 373.925 371.687 375.592 370.737 377.775C369.804 379.942 369.337 382.533 369.337 385.55C369.337 388.517 369.812 391.083 370.762 393.25C371.729 395.417 373.104 397.083 374.887 398.25C376.687 399.4 378.812 399.975 381.262 399.975ZM400.943 403C400.693 403 400.568 402.875 400.568 402.625L400.718 385.025L400.568 368.375C400.568 368.125 400.693 368 400.943 368H412.443C416.36 368 419.418 368.908 421.618 370.725C423.818 372.525 424.918 375.15 424.918 378.6C424.918 380.983 424.41 382.992 423.393 384.625C422.377 386.242 420.935 387.458 419.068 388.275C417.218 389.092 415.035 389.5 412.518 389.5H405.243L405.343 402.625C405.343 402.875 405.227 403 404.993 403H400.943ZM405.318 371.5L405.218 386.025H412.818C415.185 386.025 417.027 385.442 418.343 384.275C419.677 383.092 420.343 381.225 420.343 378.675C420.343 376.275 419.677 374.483 418.343 373.3C417.027 372.1 415.118 371.5 412.618 371.5H405.318ZM443.2 403.625C439.867 403.625 436.933 402.883 434.4 401.4C431.883 399.9 429.933 397.783 428.55 395.05C427.167 392.317 426.475 389.142 426.475 385.525C426.475 381.842 427.167 378.633 428.55 375.9C429.933 373.167 431.883 371.067 434.4 369.6C436.933 368.117 439.875 367.375 443.225 367.375C446.575 367.375 449.508 368.108 452.025 369.575C454.542 371.042 456.492 373.142 457.875 375.875C459.258 378.608 459.95 381.833 459.95 385.55C459.95 389.167 459.25 392.342 457.85 395.075C456.467 397.808 454.508 399.917 451.975 401.4C449.458 402.883 446.533 403.625 443.2 403.625ZM443.225 399.975C445.675 399.975 447.792 399.4 449.575 398.25C451.375 397.1 452.75 395.442 453.7 393.275C454.65 391.108 455.125 388.533 455.125 385.55C455.125 382.567 454.65 379.983 453.7 377.8C452.75 375.617 451.375 373.942 449.575 372.775C447.792 371.608 445.667 371.025 443.2 371.025C440.733 371.025 438.6 371.608 436.8 372.775C435.017 373.925 433.65 375.592 432.7 377.775C431.767 379.942 431.3 382.533 431.3 385.55C431.3 388.517 431.775 391.083 432.725 393.25C433.692 395.417 435.067 397.083 436.85 398.25C438.65 399.4 440.775 399.975 443.225 399.975ZM487.16 387.25L487.385 399.45H490.985C491.101 399.45 491.193 399.483 491.26 399.55C491.326 399.617 491.36 399.708 491.36 399.825V410.4C491.36 410.633 491.235 410.75 490.985 410.75H487.31C487.076 410.75 486.96 410.633 486.96 410.4L486.785 403H462.235L462.06 410.4C462.06 410.633 461.935 410.75 461.685 410.75H457.985C457.751 410.75 457.635 410.633 457.635 410.4V399.825C457.635 399.575 457.751 399.45 457.985 399.45H460.135C461.135 398.233 461.918 396.717 462.485 394.9C463.068 393.067 463.485 390.742 463.735 387.925C463.951 385.575 464.151 382.542 464.335 378.825C464.518 375.108 464.643 371.625 464.71 368.375C464.71 368.125 464.826 368 465.06 368H486.635C486.868 368 486.985 368.125 486.985 368.375L487.16 387.25ZM467.96 387.75C467.693 390.6 467.31 392.975 466.81 394.875C466.326 396.775 465.685 398.3 464.885 399.45H482.71L482.66 387.25L482.41 371.55H468.86C468.743 374.55 468.601 377.55 468.435 380.55C468.268 383.533 468.11 385.933 467.96 387.75ZM515.792 402.625C515.792 402.875 515.667 403 515.417 403H493.717C493.467 403 493.342 402.875 493.342 402.625L493.517 384.875L493.342 368.375C493.342 368.125 493.467 368 493.717 368H515.017C515.133 368 515.225 368.033 515.292 368.1C515.358 368.167 515.392 368.258 515.392 368.375V371.175C515.392 371.292 515.358 371.383 515.292 371.45C515.225 371.517 515.133 371.55 515.017 371.55H498.117L497.967 382.55H513.817C514.067 382.55 514.192 382.667 514.192 382.9V385.725C514.192 385.958 514.067 386.075 513.817 386.075H497.967L498.117 399.45H515.417C515.533 399.45 515.625 399.483 515.692 399.55C515.758 399.617 515.792 399.708 515.792 399.825V402.625Z" fill="black"/>
</svg>
