<svg width="549" height="710" viewBox="0 0 549 710" fill="none" xmlns="http://www.w3.org/2000/svg">
<path d="M-2.16353e-07 574.787L-1.59083e-07 499.138L82.1616 289L109.549 289L35.6573 480.877C243.5 296.5 473 289 549 370.736L549 449.429L549 557.862L549 710L514.766 710L514.766 596.526L425.76 596.526L425.76 710L377.833 710C377.833 710 381.256 620.341 377.833 575.512L425.76 575.512L425.76 449.429C313.474 331.752 68.467 490.732 -2.16353e-07 574.787Z" fill="#FDB4E9"/>
<path d="M549 215.511L483.683 215.511C548.999 257.518 549 307.187 549 323.999L549 324L247.391 324C242.887 282.736 278.124 236.036 310.783 215.511L247.391 215.511L247.391 113.858L303.102 113.858L303.102 54.2443L370.34 54.2443L370.34 -7.2637e-06L429.893 -4.84247e-06L429.893 54.2443L493.289 54.2444L493.289 113.859L549 113.859L549 215.511Z" fill="#FDB4E9"/>
</svg>
