<svg width="1440" height="1797" viewBox="0 0 1440 1797" fill="none" xmlns="http://www.w3.org/2000/svg">
<path d="M1962.46 1110.21L1343.1 736.901L1338.45 677.796L1448 727.313L1408.8 664.789L1747.58 631.225L1423.24 566.765L1487.46 459.382L1374.86 521.249L1379.91 486.941L1683.46 227.861L1199.42 533.801L1268.54 427.14L473.435 567.089L299.374 638.265L495.193 612.023L19.8696 790.723L542.8 674.117L598.967 700.75L217.55 819.837L467.523 799.901L10.1213 1208.25L559.011 813.376L699.574 765.642L330.811 1036.82L709.314 835.512L444.961 1587.76L855.399 806.952L953.562 843.109L890.621 1032.47L1007.7 906.165L1036.24 1165.75L1080.99 861.877L1307.25 980.326L1172.34 853.631L1159.71 803.366L1251.84 778.543L1272.95 918.524L1294.84 769.855L1962.46 1110.21Z" fill="#383737"/>
<path d="M-189 441.559C-165.528 896.759 397.789 991.787 248.745 653.907C291.21 750.175 440.916 701.845 411.603 644.068C845.604 1198.21 1149.32 927.862 931.767 728.995C1227.51 909.201 1217.73 688.327 1175.87 555.364C1481 678.313 1294.4 444.693 1162.96 312.515C1208.97 499.285 1056.17 467.766 974.016 428.66C1057.57 587.274 1018.22 592.514 988.099 575.308C697.99 366.951 627.81 384.079 663.018 428.66C702.919 456.817 710.981 533.054 653.629 524.861C505.758 503.737 424.781 312.515 516.32 290.224C653.629 276.146 940.452 359.442 627.81 260.895C315.169 162.348 288.646 301.956 314.465 384.079C-23.5255 172.906 -113.891 371.174 -23.5255 503.737C-118.351 400.497 -180.785 399.327 -189 441.559Z" fill="#FDB4E9"/>
</svg>
