<svg width="1191" height="786" viewBox="0 0 1191 786" fill="none" xmlns="http://www.w3.org/2000/svg">
<path d="M378.701 390.557C308.453 426.501 264.051 390.557 264.051 361.672C264.051 237.664 405 292.728 403.119 318.365C449.183 137.562 558.863 -81.3892 697.464 34.9541C748.499 77.7927 771.689 169.748 771.689 330.861C795.768 313.959 855.775 259.612 879.054 330.861C902.334 402.111 806.813 387.561 771.689 390.557C737.89 833.454 301.158 905.345 378.701 390.557Z" fill="white"/>
<path d="M378.701 390.557C308.453 426.501 264.051 390.557 264.051 361.672C264.051 233.937 413.601 296.2 402.554 320.592C448.282 139.367 558.293 -81.8672 697.464 34.9541C748.499 77.7927 771.689 169.748 771.689 330.861C795.768 313.959 855.775 259.612 879.054 330.861C902.334 402.111 806.813 387.561 771.689 390.557C737.89 833.454 301.158 905.345 378.701 390.557Z" stroke="black" stroke-width="3.45763"/>
<path d="M477.813 448.931C511.738 471.8 574.451 492.847 672.566 479.266C623.822 516.139 516.631 561.692 477.813 448.931Z" fill="black"/>
<path d="M450.561 422.812C455.357 430.425 464.302 439.823 477.813 448.931M477.813 448.931C511.738 471.8 574.451 492.847 672.566 479.266C623.822 516.139 516.631 561.692 477.813 448.931ZM677.219 463.228C676.554 466.864 678.947 476.829 693.836 487.606" stroke="black" stroke-width="4.61017"/>
<path d="M570.052 414.597C573.656 394.699 586.407 355.033 608.575 355.546C636.285 356.188 565.996 447.332 570.052 414.597Z" fill="#212429"/>
<path d="M569.57 354.875C554.348 368.66 527.001 400.552 539.39 417.846C554.875 439.464 595.622 333.683 569.57 354.875Z" fill="#212429"/>
<path d="M327.766 169.427C348.048 134.548 392.051 84.1868 405.808 161.771C404.821 156.666 471.284 23.3186 509.643 129.869" stroke="black" stroke-width="4.61017"/>
<path d="M710.328 528.896C708.324 566.196 716.475 628.136 765.112 577.493C813.749 526.849 837.488 486.906 843.278 473.264" stroke="black" stroke-width="4.61017"/>
<path d="M547.872 169.427L554.823 247.909" stroke="black" stroke-width="4.61017"/>
<path d="M634.756 175.033L641.707 253.515" stroke="black" stroke-width="4.61017"/>
<path d="M527.02 238.94C531.46 262.629 548.335 295.795 580.308 238.94" stroke="black" stroke-width="4.61017"/>
<path d="M613.903 245.667C618.344 269.357 635.219 302.522 667.192 245.667" stroke="black" stroke-width="4.61017"/>
<path d="M623.163 198.602L624.663 219.235" stroke="black" stroke-width="4.61017"/>
<path d="M535.591 194.808L537.09 215.442" stroke="black" stroke-width="4.61017"/>
<path d="M472.571 493.446C479.574 508.098 501.193 536.638 531.653 533.58" stroke="black" stroke-width="4.61017"/>
<path d="M648.088 43.8562C637.645 43.8562 628.512 73.9676 671.586 73.9676C707.481 73.9676 640.256 43.8562 689.203 102.157" stroke="black" stroke-width="4.61017"/>
<path d="M739.017 229.413C777.786 231.982 847.348 226.972 815.447 186.376C783.546 145.78 751.201 169.461 739.017 186.376C772.026 144.409 821.96 71.138 757.626 113.79C766.044 98.3736 777.564 69.5967 756.297 77.8187" stroke="black" stroke-width="4.61017"/>
<path d="M965.795 164.452C805.083 -55.1733 836.41 374.624 839.892 379.629C684.867 309.779 740.099 430.227 826.547 430.227C850.529 528.27 924.485 734.477 1079.51 774.955C1234.53 815.432 1108.52 602.417 1026.13 490.85C1042.28 501.041 1066.56 510.17 1102.14 516.409C1211.21 535.535 1123.22 443.571 1065.59 395.198C1085.89 391.491 1094.36 340.152 965.795 164.452Z" fill="#FDB4E9"/>
<path d="M1002.34 430.227C994.135 444.214 992.775 469.797 1026.13 490.85M1026.13 490.85C1042.28 501.041 1066.56 510.17 1102.14 516.409C1211.21 535.535 1123.22 443.571 1065.59 395.198C1085.89 391.491 1094.36 340.152 965.795 164.452C805.083 -55.1733 836.41 374.624 839.892 379.629C684.867 309.779 740.099 430.227 826.547 430.227C850.529 528.27 924.485 734.477 1079.51 774.955C1234.53 815.432 1108.52 602.417 1026.13 490.85Z" stroke="black" stroke-width="3.45763"/>
<path d="M875.2 180.346C877.324 209.87 878.673 237.526 869.411 237.526C860.09 237.526 855.503 210.057 855.503 204.451" stroke="black" stroke-width="4.61017"/>
<path d="M934.282 387.763C926.559 394.303 904.047 400.768 875.78 374.308" stroke="black" stroke-width="4.61017"/>
<path d="M1006.69 401.595C998.963 408.136 976.45 414.601 948.184 388.141" stroke="black" stroke-width="4.61017"/>
<path d="M1040.66 452.159C1043.44 468.313 1046.16 496.436 1034.78 479.695C1020.55 458.768 1038.31 432.102 1040.66 452.159Z" fill="black" stroke="black" stroke-width="4.61017"/>
<path d="M1056.64 456.583C1051.81 472.279 1045.52 499.86 1058.96 484.612C1075.75 465.552 1061.54 436.962 1056.64 456.583Z" fill="black" stroke="black" stroke-width="4.61017"/>
<path d="M933.124 319.932C921.153 296.2 893.273 254.68 877.518 278.448" stroke="black" stroke-width="4.61017"/>
<path d="M1005.53 333.765C993.557 310.033 965.676 268.513 949.921 292.281" stroke="black" stroke-width="4.61017"/>
<path d="M905.901 297.509L909.376 371.506" stroke="black" stroke-width="4.61017"/>
<path d="M978.303 311.341L981.778 385.339" stroke="black" stroke-width="4.61017"/>
<path d="M972.512 341.795V358.052" stroke="black" stroke-width="4.61017"/>
<path d="M900.687 345.719V363.097" stroke="black" stroke-width="4.61017"/>
<path d="M983.517 264.435C974.25 256.587 938.917 150.075 1039.12 239.208" stroke="black" stroke-width="4.61017"/>
<path d="M1037.38 581.724C1024.26 562.851 997.65 531.608 996.26 557.619C980.041 527.534 946.909 478.801 944.129 524.545M944.129 524.545L953.397 540.802M944.129 524.545H929.069" stroke="black" stroke-width="4.61017"/>
<path d="M1116.67 746.509C1144.25 746.403 1195.69 753.488 1180.83 782.679" stroke="black" stroke-width="4.61017"/>
<path d="M207.675 414.982C268.494 392.288 425.661 413.861 397.086 543.917C514.667 509.721 469.488 653.231 397.086 593.248C308.461 805.151 25.2183 765.91 88.9368 611.187C73.2973 623.52 13.7202 658.838 3.2121 611.187C-7.79016 561.295 77.9297 543.917 88.9368 543.917C94.7257 471.601 159.599 432.922 207.675 414.982Z" fill="#E42831" stroke="black" stroke-width="3.45763"/>
<path d="M116.926 658.257C103.99 665.171 86.9225 680.232 122.14 685.166" stroke="black" stroke-width="4.61017"/>
<path d="M167.901 541.656C165.198 553.989 185.86 573.609 212.497 550.065" stroke="black" stroke-width="4.61017"/>
<path d="M298.796 549.506C299.354 562.101 267.52 582.579 245.515 550.625" stroke="black" stroke-width="4.61017"/>
<path d="M39.3096 624.062L96.6531 571.927L93.1778 596.033" stroke="black" stroke-width="4.61017"/>
<path d="M442.452 596.033L399.01 562.398V582.579" stroke="black" stroke-width="4.61017"/>
<path d="M188.75 439.069V443.553" stroke="black" stroke-width="4.61017"/>
<path d="M224.662 440.751L209.603 437.387" stroke="black" stroke-width="4.61017"/>
<path d="M293.011 437.387L277.951 434.023" stroke="black" stroke-width="4.61017"/>
<path d="M159.789 486.719C175.235 504.284 217.133 537.732 226.4 515.308C231.313 503.423 211.34 494.567 201.493 494.567" stroke="black" stroke-width="4.61017"/>
<path d="M304.614 491.203C289.168 508.768 243.198 541.095 240.881 517.551C239.627 504.807 261.154 498.491 268.105 498.491" stroke="black" stroke-width="4.61017"/>
<path d="M171.375 497.37C169.637 516.616 175.428 548.383 195.704 548.383C203.586 548.383 214.816 539.414 220.029 520.914" stroke="black" stroke-width="4.61017"/>
<path d="M294.168 502.415C295.906 521.662 290.115 553.428 269.839 553.428C261.957 553.428 250.727 544.459 245.514 525.959" stroke="black" stroke-width="4.61017"/>
<path d="M244.746 432.902L255.196 443.707" stroke="black" stroke-width="4.61017"/>
<path d="M191.647 515.869C188.558 522.596 184.58 535.489 193.385 533.247" stroke="black" stroke-width="4.61017"/>
<path d="M267.68 519.232C264.591 525.959 260.614 538.853 269.418 536.61" stroke="black" stroke-width="4.61017"/>
<path d="M230.451 530.444C219.832 540.535 199.178 567.443 185.272 586.503C184.691 564.079 151.373 568.564 174.261 611.729C188.17 637.96 206.704 626.865 225.819 616.774C266.718 595.184 257.097 577.533 232.19 592.108" stroke="black" stroke-width="4.61017"/>
<path d="M112.871 671.712L294.749 629.107C297.645 648.728 253.623 667.227 222.924 645.932" stroke="black" stroke-width="4.61017"/>
<path d="M261.732 636.955L267.525 644.804" stroke="black" stroke-width="4.61017"/>
<path d="M354.989 525.958C387.812 485.97 450.909 420.008 440.715 476.066C430.521 532.125 399.011 524.838 384.53 514.187L417.546 488.4" stroke="black" stroke-width="4.61017"/>
</svg>
