<svg width="813" height="569" viewBox="0 0 813 569" fill="none" xmlns="http://www.w3.org/2000/svg">
<rect width="813" height="569" fill="#F97101"/>
<path d="M175.13 349C174.87 349 174.71 348.87 174.65 348.61L164.09 307.48V307.36C164.09 307.12 164.22 307 164.48 307H169.31C169.59 307 169.74 307.13 169.76 307.39L178.43 342.73L186.65 307.39C186.67 307.27 186.73 307.18 186.83 307.12C186.93 307.04 187.04 307 187.16 307H192.8C193.08 307 193.23 307.13 193.25 307.39L201.65 343.03L210.29 307.39C210.31 307.27 210.36 307.18 210.44 307.12C210.54 307.04 210.65 307 210.77 307H215.18C215.32 307 215.43 307.05 215.51 307.15C215.59 307.23 215.61 307.34 215.57 307.48L204.89 348.61C204.83 348.87 204.67 349 204.41 349H198.59C198.33 349 198.17 348.87 198.11 348.61L189.71 314.71L181.58 348.61C181.52 348.87 181.36 349 181.1 349H175.13ZM234.778 349.75C230.778 349.75 227.258 348.86 224.218 347.08C221.198 345.28 218.858 342.74 217.198 339.46C215.538 336.18 214.708 332.37 214.708 328.03C214.708 323.61 215.538 319.76 217.198 316.48C218.858 313.2 221.198 310.68 224.218 308.92C227.258 307.14 230.788 306.25 234.808 306.25C238.828 306.25 242.348 307.13 245.367 308.89C248.388 310.65 250.728 313.17 252.388 316.45C254.048 319.73 254.878 323.6 254.878 328.06C254.878 332.4 254.038 336.21 252.358 339.49C250.698 342.77 248.348 345.3 245.308 347.08C242.288 348.86 238.778 349.75 234.778 349.75ZM234.808 345.37C237.748 345.37 240.288 344.68 242.428 343.3C244.588 341.92 246.238 339.93 247.378 337.33C248.518 334.73 249.088 331.64 249.088 328.06C249.088 324.48 248.518 321.38 247.378 318.76C246.238 316.14 244.588 314.13 242.428 312.73C240.288 311.33 237.738 310.63 234.778 310.63C231.818 310.63 229.258 311.33 227.098 312.73C224.958 314.11 223.318 316.11 222.178 318.73C221.058 321.33 220.498 324.44 220.498 328.06C220.498 331.62 221.068 334.7 222.208 337.3C223.368 339.9 225.018 341.9 227.158 343.3C229.318 344.68 231.868 345.37 234.808 345.37ZM258.425 349C258.125 349 257.975 348.85 257.975 348.55L258.155 327.34L257.975 307.45C257.975 307.15 258.125 307 258.425 307H273.215C278.075 307 281.855 308.05 284.555 310.15C287.275 312.23 288.635 315.27 288.635 319.27C288.635 322.57 287.725 325.22 285.905 327.22C284.085 329.22 281.555 330.53 278.315 331.15L289.385 348.46C289.445 348.54 289.475 348.63 289.475 348.73C289.475 348.81 289.435 348.88 289.355 348.94C289.295 348.98 289.205 349 289.085 349H283.505C283.285 349 283.115 348.9 282.995 348.7L278.885 341.95L272.405 331.69H263.585L263.705 348.55C263.705 348.85 263.555 349 263.255 349H258.425ZM263.675 311.2L263.525 327.52H273.815C276.715 327.52 278.995 326.86 280.655 325.54C282.315 324.2 283.145 322.14 283.145 319.36C283.145 316.7 282.325 314.68 280.685 313.3C279.045 311.9 276.725 311.2 273.725 311.2H263.675ZM319.467 307C319.707 307 319.827 307.09 319.827 307.27C319.827 307.33 319.787 307.42 319.707 307.54L306.027 323.74L322.557 348.46C322.617 348.54 322.647 348.63 322.647 348.73C322.647 348.81 322.607 348.88 322.527 348.94C322.467 348.98 322.377 349 322.257 349H316.347C316.107 349 315.927 348.91 315.807 348.73L311.667 342.46L302.367 328.15L297.717 333.67L297.807 348.55C297.807 348.85 297.667 349 297.387 349H292.527C292.247 349 292.107 348.85 292.107 348.55L292.287 327.37L292.137 307.45C292.137 307.15 292.277 307 292.557 307H297.387C297.667 307 297.807 307.15 297.807 307.45L297.687 326.8L313.287 307.27C313.387 307.09 313.557 307 313.797 307H319.467ZM331.145 333.22C331.145 333.5 330.995 333.64 330.695 333.64H318.095C317.795 333.64 317.645 333.5 317.645 333.22V330.01C317.645 329.73 317.795 329.59 318.095 329.59H330.695C330.995 329.59 331.145 329.73 331.145 330.01V333.22ZM351.225 306.25C355.105 306.25 358.455 307.12 361.275 308.86C364.095 310.58 366.255 313.07 367.755 316.33C369.275 319.57 370.035 323.44 370.035 327.94C370.035 332.44 369.255 336.33 367.695 339.61C366.155 342.87 363.935 345.38 361.035 347.14C358.155 348.88 354.735 349.75 350.775 349.75C345.635 349.75 341.505 348.45 338.385 345.85C335.285 343.25 333.355 339.33 332.595 334.09V333.97C332.595 333.73 332.725 333.61 332.985 333.61H337.725C338.005 333.61 338.165 333.75 338.205 334.03C338.585 337.77 339.855 340.61 342.015 342.55C344.175 344.49 347.105 345.46 350.805 345.46C355.005 345.46 358.245 344.07 360.525 341.29C362.805 338.49 364.025 334.44 364.185 329.14H344.775C344.495 329.14 344.355 329 344.355 328.72V325.33C344.355 325.05 344.495 324.91 344.775 324.91H364.095C363.695 320.31 362.385 316.76 360.165 314.26C357.965 311.76 354.925 310.51 351.045 310.51C347.645 310.51 344.845 311.39 342.645 313.15C340.445 314.91 339.045 317.54 338.445 321.04C338.405 321.3 338.245 321.43 337.965 321.43H333.315C333.175 321.43 333.065 321.38 332.985 321.28C332.925 321.18 332.905 321.04 332.925 320.86C333.885 315.74 335.975 312.03 339.195 309.73C342.415 307.41 346.425 306.25 351.225 306.25ZM373.62 349C373.32 349 373.17 348.85 373.17 348.55L373.35 327.37L373.2 307.45C373.2 307.15 373.34 307 373.62 307H378.45C378.73 307 378.87 307.15 378.87 307.45L378.75 324.34H384.84L395.64 307.3C395.76 307.1 395.93 307 396.15 307H401.25C401.49 307 401.61 307.09 401.61 307.27C401.61 307.35 401.58 307.44 401.52 307.54L389.43 325.87L404.1 348.46C404.16 348.54 404.19 348.63 404.19 348.73C404.19 348.91 404.07 349 403.83 349H398.01C397.79 349 397.62 348.9 397.5 348.7L384.81 328.63H378.75L378.87 348.55C378.87 348.85 378.73 349 378.45 349H373.62ZM420.421 349.75C416.341 349.75 412.831 348.88 409.891 347.14C406.951 345.4 404.701 342.9 403.141 339.64C401.581 336.36 400.801 332.46 400.801 327.94C400.801 323.54 401.591 319.71 403.171 316.45C404.771 313.17 407.041 310.65 409.981 308.89C412.941 307.13 416.421 306.25 420.421 306.25C424.961 306.25 428.781 307.42 431.881 309.76C434.981 312.08 437.001 315.81 437.941 320.95V321.07C437.941 321.31 437.811 321.43 437.551 321.43H432.871C432.631 321.43 432.481 321.3 432.421 321.04C431.821 317.54 430.461 314.93 428.341 313.21C426.221 311.49 423.551 310.63 420.331 310.63C417.451 310.63 414.971 311.34 412.891 312.76C410.831 314.18 409.261 316.19 408.181 318.79C407.121 321.39 406.591 324.44 406.591 327.94C406.591 331.74 407.131 334.94 408.211 337.54C409.311 340.14 410.881 342.1 412.921 343.42C414.981 344.72 417.441 345.37 420.301 345.37C423.821 345.37 426.661 344.4 428.821 342.46C430.981 340.52 432.251 337.72 432.631 334.06C432.691 333.78 432.851 333.64 433.111 333.64H437.851C438.011 333.64 438.121 333.69 438.181 333.79C438.261 333.89 438.281 334.02 438.241 334.18C437.501 339.36 435.571 343.25 432.451 345.85C429.351 348.45 425.341 349.75 420.421 349.75ZM441.648 349C441.348 349 441.198 348.85 441.198 348.55L441.378 327.37L441.228 307.45C441.228 307.15 441.368 307 441.648 307H446.478C446.758 307 446.898 307.15 446.898 307.45L446.778 324.34H452.868L463.668 307.3C463.788 307.1 463.958 307 464.178 307H469.278C469.518 307 469.638 307.09 469.638 307.27C469.638 307.35 469.608 307.44 469.548 307.54L457.458 325.87L472.128 348.46C472.188 348.54 472.218 348.63 472.218 348.73C472.218 348.91 472.098 349 471.858 349H466.038C465.818 349 465.648 348.9 465.528 348.7L452.838 328.63H446.778L446.898 348.55C446.898 348.85 446.758 349 446.478 349H441.648ZM479.85 349.39C478.93 349.39 478.09 349.29 477.33 349.09C477.07 349.03 476.94 348.87 476.94 348.61V345.16C476.94 345 476.98 344.89 477.06 344.83C477.16 344.77 477.28 344.75 477.42 344.77C478.12 344.91 478.81 344.98 479.49 344.98C480.93 344.98 482.2 344.59 483.3 343.81C484.4 343.01 485.42 341.83 486.36 340.27L470.82 307.51C470.78 307.39 470.76 307.32 470.76 307.3C470.76 307.1 470.89 307 471.15 307H476.55C476.81 307 476.98 307.11 477.06 307.33L489.06 334.42L489.48 333.4C489.64 332.92 489.8 332.52 489.96 332.2L499.44 307.36C499.54 307.12 499.7 307 499.92 307H504.6C504.76 307 504.87 307.05 504.93 307.15C504.99 307.23 504.99 307.35 504.93 307.51L493.56 335.83C492.26 339.07 490.98 341.66 489.72 343.6C488.48 345.54 487.07 346.99 485.49 347.95C483.91 348.91 482.03 349.39 479.85 349.39ZM507.331 349C507.031 349 506.881 348.85 506.881 348.55L507.061 327.43L506.881 307.45C506.881 307.15 507.031 307 507.331 307H521.131C525.831 307 529.501 308.09 532.141 310.27C534.781 312.43 536.101 315.58 536.101 319.72C536.101 322.58 535.491 324.99 534.271 326.95C533.051 328.89 531.321 330.35 529.081 331.33C526.861 332.31 524.241 332.8 521.221 332.8H512.491L512.611 348.55C512.611 348.85 512.471 349 512.191 349H507.331ZM512.581 311.2L512.461 328.63H521.581C524.421 328.63 526.631 327.93 528.211 326.53C529.811 325.11 530.611 322.87 530.611 319.81C530.611 316.93 529.811 314.78 528.211 313.36C526.631 311.92 524.341 311.2 521.341 311.2H512.581ZM557.589 349.75C553.509 349.75 549.999 348.88 547.059 347.14C544.119 345.4 541.869 342.9 540.309 339.64C538.749 336.36 537.969 332.46 537.969 327.94C537.969 323.54 538.759 319.71 540.339 316.45C541.939 313.17 544.209 310.65 547.149 308.89C550.109 307.13 553.589 306.25 557.589 306.25C562.129 306.25 565.949 307.42 569.049 309.76C572.149 312.08 574.169 315.81 575.109 320.95V321.07C575.109 321.31 574.979 321.43 574.719 321.43H570.039C569.799 321.43 569.649 321.3 569.589 321.04C568.989 317.54 567.629 314.93 565.509 313.21C563.389 311.49 560.719 310.63 557.499 310.63C554.619 310.63 552.139 311.34 550.059 312.76C547.999 314.18 546.429 316.19 545.349 318.79C544.289 321.39 543.759 324.44 543.759 327.94C543.759 331.74 544.299 334.94 545.379 337.54C546.479 340.14 548.049 342.1 550.089 343.42C552.149 344.72 554.609 345.37 557.469 345.37C560.989 345.37 563.829 344.4 565.989 342.46C568.149 340.52 569.419 337.72 569.799 334.06C569.859 333.78 570.019 333.64 570.279 333.64H575.019C575.179 333.64 575.289 333.69 575.349 333.79C575.429 333.89 575.449 334.02 575.409 334.18C574.669 339.36 572.739 343.25 569.619 345.85C566.519 348.45 562.509 349.75 557.589 349.75ZM578.816 349C578.516 349 578.366 348.85 578.366 348.55L578.546 328.24L578.366 307.45C578.366 307.15 578.516 307 578.816 307H583.646C583.926 307 584.066 307.15 584.066 307.45L583.976 326.08L583.886 341.32L606.596 307.3C606.716 307.1 606.896 307 607.136 307H612.116C612.416 307 612.566 307.15 612.566 307.45L612.386 328.24L612.566 348.55C612.566 348.85 612.416 349 612.116 349H607.286C607.006 349 606.866 348.85 606.866 348.55L606.986 330.28L607.106 314.65L584.336 348.7C584.216 348.9 584.036 349 583.796 349H578.816ZM615.545 349C615.425 349 615.325 348.98 615.245 348.94C615.185 348.88 615.155 348.81 615.155 348.73C615.155 348.63 615.185 348.54 615.245 348.46L626.195 331.15C622.935 330.53 620.385 329.23 618.545 327.25C616.725 325.25 615.815 322.59 615.815 319.27C615.815 315.27 617.165 312.23 619.865 310.15C622.585 308.05 626.385 307 631.265 307H646.025C646.325 307 646.475 307.15 646.475 307.45L646.295 327.34L646.475 348.55C646.475 348.85 646.325 349 646.025 349H641.195C640.915 349 640.775 348.85 640.775 348.55L640.895 331.69H632.045L625.625 341.95L621.545 348.7C621.425 348.9 621.255 349 621.035 349H615.545ZM640.925 327.52L640.805 311.2H630.755C627.755 311.2 625.425 311.89 623.765 313.27C622.125 314.65 621.305 316.63 621.305 319.21C621.305 322.07 622.135 324.17 623.795 325.51C625.455 326.85 627.765 327.52 630.725 327.52H640.925Z" fill="black"/>
<path d="M286.76 405.39C285.84 405.39 285 405.29 284.24 405.09C283.98 405.03 283.85 404.87 283.85 404.61V401.16C283.85 401 283.89 400.89 283.97 400.83C284.07 400.77 284.19 400.75 284.33 400.77C285.03 400.91 285.72 400.98 286.4 400.98C287.84 400.98 289.11 400.59 290.21 399.81C291.31 399.01 292.33 397.83 293.27 396.27L277.73 363.51C277.69 363.39 277.67 363.32 277.67 363.3C277.67 363.1 277.8 363 278.06 363H283.46C283.72 363 283.89 363.11 283.97 363.33L295.97 390.42L296.39 389.4C296.55 388.92 296.71 388.52 296.87 388.2L306.35 363.36C306.45 363.12 306.61 363 306.83 363H311.51C311.67 363 311.78 363.05 311.84 363.15C311.9 363.23 311.9 363.35 311.84 363.51L300.47 391.83C299.17 395.07 297.89 397.66 296.63 399.6C295.39 401.54 293.98 402.99 292.4 403.95C290.82 404.91 288.94 405.39 286.76 405.39ZM308.893 405.36C307.953 405.36 307.083 405.27 306.283 405.09C306.043 405.03 305.923 404.86 305.923 404.58V401.22C305.923 401.06 305.963 400.95 306.043 400.89C306.143 400.83 306.263 400.81 306.403 400.83C306.963 400.91 307.433 400.95 307.813 400.95C308.953 400.95 309.853 400.68 310.513 400.14C311.193 399.6 311.713 398.71 312.073 397.47C312.453 396.23 312.743 394.47 312.943 392.19C313.463 386.45 313.923 376.87 314.323 363.45C314.363 363.15 314.513 363 314.773 363H340.603C340.903 363 341.053 363.15 341.053 363.45L340.993 384.21L341.203 404.55C341.203 404.85 341.063 405 340.783 405H335.983C335.683 405 335.533 404.85 335.533 404.55L335.623 384.21L335.443 367.26H319.333C319.153 371.9 318.933 376.54 318.673 381.18C318.433 385.8 318.223 389.31 318.043 391.71C317.763 395.05 317.343 397.68 316.783 399.6C316.223 401.5 315.323 402.94 314.083 403.92C312.863 404.88 311.133 405.36 308.893 405.36ZM350.592 404.55C350.592 404.85 350.442 405 350.142 405H344.922C344.642 405 344.502 404.85 344.502 404.55V399.39C344.502 399.09 344.642 398.94 344.922 398.94H350.142C350.282 398.94 350.392 398.98 350.472 399.06C350.552 399.14 350.592 399.25 350.592 399.39V404.55ZM370.3 405.75C366.22 405.75 362.71 404.88 359.77 403.14C356.83 401.4 354.58 398.9 353.02 395.64C351.46 392.36 350.68 388.46 350.68 383.94C350.68 379.54 351.47 375.71 353.05 372.45C354.65 369.17 356.92 366.65 359.86 364.89C362.82 363.13 366.3 362.25 370.3 362.25C374.84 362.25 378.66 363.42 381.76 365.76C384.86 368.08 386.88 371.81 387.82 376.95V377.07C387.82 377.31 387.69 377.43 387.43 377.43H382.75C382.51 377.43 382.36 377.3 382.3 377.04C381.7 373.54 380.34 370.93 378.22 369.21C376.1 367.49 373.43 366.63 370.21 366.63C367.33 366.63 364.85 367.34 362.77 368.76C360.71 370.18 359.14 372.19 358.06 374.79C357 377.39 356.47 380.44 356.47 383.94C356.47 387.74 357.01 390.94 358.09 393.54C359.19 396.14 360.76 398.1 362.8 399.42C364.86 400.72 367.32 401.37 370.18 401.37C373.7 401.37 376.54 400.4 378.7 398.46C380.86 396.52 382.13 393.72 382.51 390.06C382.57 389.78 382.73 389.64 382.99 389.64H387.73C387.89 389.64 388 389.69 388.06 389.79C388.14 389.89 388.16 390.02 388.12 390.18C387.38 395.36 385.45 399.25 382.33 401.85C379.23 404.45 375.22 405.75 370.3 405.75ZM405.05 404.55C405.05 404.85 404.91 405 404.63 405H399.62C399.34 405 399.2 404.85 399.2 404.55L399.44 384.21L399.26 367.26H387.5C387.22 367.26 387.08 367.12 387.08 366.84V363.45C387.08 363.15 387.22 363 387.5 363H416.75C416.89 363 417 363.04 417.08 363.12C417.16 363.2 417.2 363.31 417.2 363.45V366.84C417.2 367.12 417.05 367.26 416.75 367.26H404.99L404.81 384.21L405.05 404.55ZM420.062 405C419.762 405 419.612 404.85 419.612 404.55L419.792 383.43L419.612 363.45C419.612 363.15 419.762 363 420.062 363H433.862C438.562 363 442.232 364.09 444.872 366.27C447.512 368.43 448.832 371.58 448.832 375.72C448.832 378.58 448.222 380.99 447.002 382.95C445.782 384.89 444.052 386.35 441.812 387.33C439.592 388.31 436.972 388.8 433.952 388.8H425.222L425.342 404.55C425.342 404.85 425.202 405 424.922 405H420.062ZM425.312 367.2L425.192 384.63H434.312C437.152 384.63 439.362 383.93 440.942 382.53C442.542 381.11 443.342 378.87 443.342 375.81C443.342 372.93 442.542 370.78 440.942 369.36C439.362 367.92 437.072 367.2 434.072 367.2H425.312ZM470.77 405.75C466.77 405.75 463.25 404.86 460.21 403.08C457.19 401.28 454.85 398.74 453.19 395.46C451.53 392.18 450.7 388.37 450.7 384.03C450.7 379.61 451.53 375.76 453.19 372.48C454.85 369.2 457.19 366.68 460.21 364.92C463.25 363.14 466.78 362.25 470.8 362.25C474.82 362.25 478.34 363.13 481.36 364.89C484.38 366.65 486.72 369.17 488.38 372.45C490.04 375.73 490.87 379.6 490.87 384.06C490.87 388.4 490.03 392.21 488.35 395.49C486.69 398.77 484.34 401.3 481.3 403.08C478.28 404.86 474.77 405.75 470.77 405.75ZM470.8 401.37C473.74 401.37 476.28 400.68 478.42 399.3C480.58 397.92 482.23 395.93 483.37 393.33C484.51 390.73 485.08 387.64 485.08 384.06C485.08 380.48 484.51 377.38 483.37 374.76C482.23 372.14 480.58 370.13 478.42 368.73C476.28 367.33 473.73 366.63 470.77 366.63C467.81 366.63 465.25 367.33 463.09 368.73C460.95 370.11 459.31 372.11 458.17 374.73C457.05 377.33 456.49 380.44 456.49 384.06C456.49 387.62 457.06 390.7 458.2 393.3C459.36 395.9 461.01 397.9 463.15 399.3C465.31 400.68 467.86 401.37 470.8 401.37ZM494.417 405C494.117 405 493.967 404.85 493.967 404.55L494.147 384.24L493.967 363.45C493.967 363.15 494.117 363 494.417 363H499.247C499.527 363 499.667 363.15 499.667 363.45L499.577 382.08L499.487 397.32L522.197 363.3C522.317 363.1 522.497 363 522.737 363H527.717C528.017 363 528.167 363.15 528.167 363.45L527.987 384.24L528.167 404.55C528.167 404.85 528.017 405 527.717 405H522.887C522.607 405 522.467 404.85 522.467 404.55L522.587 386.28L522.707 370.65L499.937 404.7C499.817 404.9 499.637 405 499.397 405H494.417ZM548.546 404.55C548.546 404.85 548.406 405 548.126 405H543.116C542.836 405 542.696 404.85 542.696 404.55L542.936 384.21L542.756 367.26H530.996C530.716 367.26 530.576 367.12 530.576 366.84V363.45C530.576 363.15 530.716 363 530.996 363H560.246C560.386 363 560.496 363.04 560.576 363.12C560.656 363.2 560.696 363.31 560.696 363.45V366.84C560.696 367.12 560.546 367.26 560.246 367.26H548.486L548.306 384.21L548.546 404.55ZM590.048 404.55C590.048 404.85 589.898 405 589.598 405H563.558C563.258 405 563.108 404.85 563.108 404.55L563.318 383.25L563.108 363.45C563.108 363.15 563.258 363 563.558 363H589.118C589.258 363 589.368 363.04 589.448 363.12C589.528 363.2 589.568 363.31 589.568 363.45V366.81C589.568 366.95 589.528 367.06 589.448 367.14C589.368 367.22 589.258 367.26 589.118 367.26H568.838L568.658 380.46H587.678C587.978 380.46 588.128 380.6 588.128 380.88V384.27C588.128 384.55 587.978 384.69 587.678 384.69H568.658L568.838 400.74H589.598C589.738 400.74 589.848 400.78 589.928 400.86C590.008 400.94 590.048 401.05 590.048 401.19V404.55ZM594.948 405.36C594.008 405.36 593.138 405.27 592.338 405.09C592.098 405.03 591.978 404.86 591.978 404.58V401.22C591.978 401.06 592.018 400.95 592.098 400.89C592.198 400.83 592.318 400.81 592.458 400.83C593.018 400.91 593.488 400.95 593.868 400.95C595.008 400.95 595.908 400.68 596.568 400.14C597.248 399.6 597.768 398.71 598.128 397.47C598.508 396.23 598.798 394.47 598.998 392.19C599.518 386.45 599.978 376.87 600.378 363.45C600.418 363.15 600.568 363 600.828 363H626.658C626.958 363 627.108 363.15 627.108 363.45L627.048 384.21L627.258 404.55C627.258 404.85 627.118 405 626.838 405H622.038C621.738 405 621.588 404.85 621.588 404.55L621.678 384.21L621.498 367.26H605.388C605.208 371.9 604.988 376.54 604.728 381.18C604.488 385.8 604.278 389.31 604.098 391.71C603.818 395.05 603.398 397.68 602.838 399.6C602.278 401.5 601.378 402.94 600.138 403.92C598.918 404.88 597.188 405.36 594.948 405.36ZM658.427 404.55C658.427 404.85 658.277 405 657.977 405H631.937C631.637 405 631.487 404.85 631.487 404.55L631.697 383.25L631.487 363.45C631.487 363.15 631.637 363 631.937 363H657.497C657.637 363 657.747 363.04 657.827 363.12C657.907 363.2 657.947 363.31 657.947 363.45V366.81C657.947 366.95 657.907 367.06 657.827 367.14C657.747 367.22 657.637 367.26 657.497 367.26H637.217L637.037 380.46H656.057C656.357 380.46 656.507 380.6 656.507 380.88V384.27C656.507 384.55 656.357 384.69 656.057 384.69H637.037L637.217 400.74H657.977C658.117 400.74 658.227 400.78 658.307 400.86C658.387 400.94 658.427 401.05 658.427 401.19V404.55ZM661.878 405C661.578 405 661.428 404.85 661.428 404.55L661.608 384.24L661.428 363.45C661.428 363.15 661.578 363 661.878 363H666.708C666.988 363 667.128 363.15 667.128 363.45L667.038 382.08L666.948 397.32L689.658 363.3C689.778 363.1 689.958 363 690.198 363H695.178C695.478 363 695.628 363.15 695.628 363.45L695.448 384.24L695.628 404.55C695.628 404.85 695.478 405 695.178 405H690.348C690.068 405 689.928 404.85 689.928 404.55L690.048 386.28L690.168 370.65L667.398 404.7C667.278 404.9 667.098 405 666.858 405H661.878ZM678.948 360.21C680.808 360.21 682.418 359.87 683.778 359.19C685.158 358.51 686.208 357.55 686.928 356.31C687.668 355.07 688.038 353.64 688.038 352.02H683.658C683.618 353.52 683.198 354.71 682.398 355.59C681.618 356.47 680.498 356.91 679.038 356.91C677.538 356.91 676.398 356.47 675.618 355.59C674.858 354.71 674.478 353.52 674.478 352.02H670.068C670.068 353.64 670.428 355.07 671.148 356.31C671.868 357.55 672.888 358.51 674.208 359.19C675.548 359.87 677.128 360.21 678.948 360.21ZM700.887 410.49C700.767 410.67 700.597 410.76 700.377 410.76H698.067C697.907 410.76 697.797 410.71 697.737 410.61C697.677 410.53 697.657 410.42 697.677 410.28L699.177 404.88V399.39C699.177 399.09 699.317 398.94 699.597 398.94H704.247C704.387 398.94 704.497 398.98 704.577 399.06C704.657 399.14 704.697 399.25 704.697 399.39V404.55C704.697 404.73 704.637 404.91 704.517 405.09L700.887 410.49ZM740.879 389.28H744.929C745.229 389.28 745.379 389.42 745.379 389.7V393.15C745.379 393.29 745.339 393.4 745.259 393.48C745.179 393.56 745.069 393.6 744.929 393.6H740.879V404.58C740.879 404.72 740.839 404.83 740.759 404.91C740.679 404.99 740.569 405.03 740.429 405.03H735.719C735.439 405.03 735.299 404.88 735.299 404.58V393.6H716.219C715.939 393.6 715.799 393.45 715.799 393.15V389.16C715.799 388.96 715.849 388.79 715.949 388.65L732.899 363.3C733.019 363.1 733.189 363 733.409 363H740.429C740.569 363 740.679 363.04 740.759 363.12C740.839 363.2 740.879 363.31 740.879 363.45V389.28ZM735.299 389.28V376.32L735.449 367.05L720.599 389.28H735.299ZM773.888 404.55C773.888 404.85 773.738 405 773.438 405H747.788C747.648 405 747.538 404.96 747.458 404.88C747.378 404.8 747.338 404.69 747.338 404.55V399.54C747.338 396.76 747.918 394.43 749.078 392.55C750.238 390.65 751.638 389.13 753.278 387.99C754.938 386.85 757.098 385.59 759.758 384.21C761.878 383.11 763.528 382.18 764.708 381.42C765.908 380.64 766.908 379.69 767.708 378.57C768.528 377.45 768.938 376.13 768.938 374.61C768.978 373.03 768.698 371.63 768.098 370.41C767.518 369.19 766.618 368.24 765.398 367.56C764.198 366.86 762.718 366.51 760.958 366.51C758.318 366.51 756.248 367.39 754.748 369.15C753.268 370.89 752.468 373.45 752.348 376.83C752.348 377.13 752.208 377.28 751.928 377.28H747.698C747.398 377.28 747.248 377.13 747.248 376.83C747.328 372.15 748.528 368.57 750.848 366.09C753.188 363.59 756.558 362.33 760.958 362.31C763.758 362.31 766.138 362.8 768.098 363.78C770.058 364.74 771.548 366.13 772.568 367.95C773.608 369.77 774.148 371.94 774.188 374.46C774.188 376.96 773.628 379.08 772.508 380.82C771.408 382.54 770.068 383.94 768.488 385.02C766.908 386.1 764.818 387.31 762.218 388.65C760.038 389.77 758.318 390.74 757.058 391.56C755.798 392.38 754.738 393.39 753.878 394.59C753.038 395.77 752.618 397.17 752.618 398.79V400.68H773.438C773.578 400.68 773.688 400.72 773.768 400.8C773.848 400.88 773.888 400.99 773.888 401.13V404.55Z" fill="black"/>
<path d="M56.91 246.6C52.61 246.6 49.28 245.47 46.92 243.21C44.56 240.95 43.25 237.63 42.99 233.25V233.19C42.99 233.07 43.03 232.98 43.11 232.92C43.19 232.84 43.29 232.8 43.41 232.8H47.97C48.27 232.8 48.42 232.95 48.42 233.25C48.54 236.29 49.3 238.61 50.7 240.21C52.12 241.81 54.21 242.61 56.97 242.61C59.87 242.61 62.08 241.8 63.6 240.18C65.14 238.56 65.91 236.36 65.91 233.58C65.91 230.9 65.07 228.89 63.39 227.55C61.73 226.19 59.24 225.51 55.92 225.51H53.88C53.58 225.51 53.43 225.37 53.43 225.09V222.12C53.43 221.84 53.58 221.7 53.88 221.7H55.92C58.94 221.7 61.22 221.08 62.76 219.84C64.3 218.58 65.07 216.84 65.07 214.62C65.07 213.14 64.74 211.86 64.08 210.78C63.44 209.68 62.54 208.84 61.38 208.26C60.24 207.68 58.94 207.39 57.48 207.39C52.14 207.39 49.29 210.32 48.93 216.18C48.93 216.48 48.78 216.63 48.48 216.63H44.01C43.87 216.63 43.76 216.59 43.68 216.51C43.6 216.43 43.57 216.32 43.59 216.18C43.71 213.44 44.36 211.12 45.54 209.22C46.72 207.3 48.35 205.85 50.43 204.87C52.51 203.89 54.93 203.4 57.69 203.4C60.19 203.4 62.41 203.83 64.35 204.69C66.31 205.55 67.84 206.79 68.94 208.41C70.06 210.03 70.62 211.93 70.62 214.11C70.62 216.59 69.96 218.58 68.64 220.08C67.32 221.56 65.57 222.65 63.39 223.35C65.95 223.91 67.96 225.1 69.42 226.92C70.9 228.72 71.64 230.96 71.64 233.64C71.64 236.22 71.01 238.49 69.75 240.45C68.51 242.41 66.77 243.93 64.53 245.01C62.31 246.07 59.77 246.6 56.91 246.6ZM89.2289 246.75C86.2089 246.75 83.5589 245.89 81.2789 244.17C78.9989 242.45 77.2389 239.96 75.9989 236.7C74.7589 233.44 74.1389 229.55 74.1389 225.03C74.1389 220.43 74.7589 216.5 75.9989 213.24C77.2389 209.96 78.9889 207.48 81.2489 205.8C83.5289 204.1 86.1989 203.25 89.2589 203.25C92.3189 203.25 94.9889 204.09 97.2689 205.77C99.5489 207.45 101.309 209.93 102.549 213.21C103.789 216.47 104.409 220.42 104.409 225.06C104.409 229.58 103.779 233.47 102.519 236.73C101.279 239.99 99.5189 242.48 97.2389 244.2C94.9589 245.9 92.2889 246.75 89.2289 246.75ZM89.2589 242.31C92.2189 242.31 94.5189 240.85 96.1589 237.93C97.7989 234.99 98.6189 230.7 98.6189 225.06C98.6189 221.28 98.2389 218.1 97.4789 215.52C96.7389 212.92 95.6689 210.97 94.2689 209.67C92.8689 208.35 91.1889 207.69 89.2289 207.69C86.2489 207.69 83.9489 209.16 82.3289 212.1C80.7289 215.04 79.9289 219.36 79.9289 225.06C79.9289 228.8 80.2989 231.96 81.0389 234.54C81.7989 237.12 82.8689 239.06 84.2489 240.36C85.6489 241.66 87.3189 242.31 89.2589 242.31ZM111.428 245.55C111.428 245.85 111.278 246 110.978 246H105.758C105.478 246 105.338 245.85 105.338 245.55V240.39C105.338 240.09 105.478 239.94 105.758 239.94H110.978C111.118 239.94 111.228 239.98 111.308 240.06C111.388 240.14 111.428 240.25 111.428 240.39V245.55ZM127.432 246.75C124.412 246.75 121.762 245.89 119.482 244.17C117.202 242.45 115.442 239.96 114.202 236.7C112.962 233.44 112.342 229.55 112.342 225.03C112.342 220.43 112.962 216.5 114.202 213.24C115.442 209.96 117.192 207.48 119.452 205.8C121.732 204.1 124.402 203.25 127.462 203.25C130.522 203.25 133.192 204.09 135.472 205.77C137.752 207.45 139.512 209.93 140.752 213.21C141.992 216.47 142.612 220.42 142.612 225.06C142.612 229.58 141.982 233.47 140.722 236.73C139.482 239.99 137.722 242.48 135.442 244.2C133.162 245.9 130.492 246.75 127.432 246.75ZM127.462 242.31C130.422 242.31 132.722 240.85 134.362 237.93C136.002 234.99 136.822 230.7 136.822 225.06C136.822 221.28 136.442 218.1 135.682 215.52C134.942 212.92 133.872 210.97 132.472 209.67C131.072 208.35 129.392 207.69 127.432 207.69C124.452 207.69 122.152 209.16 120.532 212.1C118.932 215.04 118.132 219.36 118.132 225.06C118.132 228.8 118.502 231.96 119.242 234.54C120.002 237.12 121.072 239.06 122.452 240.36C123.852 241.66 125.522 242.31 127.462 242.31ZM169.84 230.28H173.89C174.19 230.28 174.34 230.42 174.34 230.7V234.15C174.34 234.29 174.3 234.4 174.22 234.48C174.14 234.56 174.03 234.6 173.89 234.6H169.84V245.58C169.84 245.72 169.8 245.83 169.72 245.91C169.64 245.99 169.53 246.03 169.39 246.03H164.68C164.4 246.03 164.26 245.88 164.26 245.58V234.6H145.18C144.9 234.6 144.76 234.45 144.76 234.15V230.16C144.76 229.96 144.81 229.79 144.91 229.65L161.86 204.3C161.98 204.1 162.15 204 162.37 204H169.39C169.53 204 169.64 204.04 169.72 204.12C169.8 204.2 169.84 204.31 169.84 204.45V230.28ZM164.26 230.28V217.32L164.41 208.05L149.56 230.28H164.26ZM182.209 245.55C182.209 245.85 182.059 246 181.759 246H176.539C176.259 246 176.119 245.85 176.119 245.55V240.39C176.119 240.09 176.259 239.94 176.539 239.94H181.759C181.899 239.94 182.009 239.98 182.089 240.06C182.169 240.14 182.209 240.25 182.209 240.39V245.55ZM211.58 245.55C211.58 245.85 211.43 246 211.13 246H185.48C185.34 246 185.23 245.96 185.15 245.88C185.07 245.8 185.03 245.69 185.03 245.55V240.54C185.03 237.76 185.61 235.43 186.77 233.55C187.93 231.65 189.33 230.13 190.97 228.99C192.63 227.85 194.79 226.59 197.45 225.21C199.57 224.11 201.22 223.18 202.4 222.42C203.6 221.64 204.6 220.69 205.4 219.57C206.22 218.45 206.63 217.13 206.63 215.61C206.67 214.03 206.39 212.63 205.79 211.41C205.21 210.19 204.31 209.24 203.09 208.56C201.89 207.86 200.41 207.51 198.65 207.51C196.01 207.51 193.94 208.39 192.44 210.15C190.96 211.89 190.16 214.45 190.04 217.83C190.04 218.13 189.9 218.28 189.62 218.28H185.39C185.09 218.28 184.94 218.13 184.94 217.83C185.02 213.15 186.22 209.57 188.54 207.09C190.88 204.59 194.25 203.33 198.65 203.31C201.45 203.31 203.83 203.8 205.79 204.78C207.75 205.74 209.24 207.13 210.26 208.95C211.3 210.77 211.84 212.94 211.88 215.46C211.88 217.96 211.32 220.08 210.2 221.82C209.1 223.54 207.76 224.94 206.18 226.02C204.6 227.1 202.51 228.31 199.91 229.65C197.73 230.77 196.01 231.74 194.75 232.56C193.49 233.38 192.43 234.39 191.57 235.59C190.73 236.77 190.31 238.17 190.31 239.79V241.68H211.13C211.27 241.68 211.38 241.72 211.46 241.8C211.54 241.88 211.58 241.99 211.58 242.13V245.55ZM227.655 246.78C223.495 246.78 220.255 245.72 217.935 243.6C215.635 241.48 214.295 238.55 213.915 234.81V234.75C213.915 234.49 214.055 234.36 214.335 234.36H219.045C219.345 234.36 219.495 234.51 219.495 234.81C219.675 237.23 220.455 239.16 221.835 240.6C223.235 242.02 225.165 242.73 227.625 242.73C229.425 242.73 230.985 242.27 232.305 241.35C233.625 240.43 234.645 239.1 235.365 237.36C236.085 235.6 236.445 233.51 236.445 231.09C236.445 227.51 235.715 224.78 234.255 222.9C232.795 221.02 230.705 220.08 227.985 220.08C225.825 220.08 224.065 220.63 222.705 221.73C221.345 222.81 220.415 224.37 219.915 226.41C219.855 226.67 219.705 226.8 219.465 226.8H215.325C215.025 226.8 214.875 226.65 214.875 226.35L216.345 204.42C216.345 204.14 216.485 204 216.765 204H239.175C239.455 204 239.595 204.15 239.595 204.45V207.87C239.595 208.17 239.455 208.32 239.175 208.32H221.175L220.275 219.96C221.455 218.64 222.785 217.65 224.265 216.99C225.745 216.31 227.465 215.97 229.425 215.97C231.905 215.97 234.125 216.57 236.085 217.77C238.045 218.97 239.575 220.69 240.675 222.93C241.795 225.15 242.355 227.76 242.355 230.76C242.355 233.98 241.735 236.8 240.495 239.22C239.275 241.64 237.555 243.51 235.335 244.83C233.115 246.13 230.555 246.78 227.655 246.78Z" fill="black"/>
<path d="M662.96 246C662.68 246 662.54 245.85 662.54 245.55L662.6 225.9L662.57 210.24C660.31 212.3 657.48 213.89 654.08 215.01C654.04 215.03 653.99 215.04 653.93 215.04C653.83 215.04 653.75 215 653.69 214.92C653.63 214.84 653.6 214.75 653.6 214.65V211.14C653.6 210.88 653.71 210.71 653.93 210.63C655.75 209.95 657.41 209.06 658.91 207.96C660.43 206.86 661.68 205.64 662.66 204.3C662.8 204.1 662.98 204 663.2 204H667.76C668.04 204 668.18 204.15 668.18 204.45L668.12 225.99L668.18 245.55C668.18 245.85 668.04 246 667.76 246H662.96ZM687.807 246.75C684.787 246.75 682.137 245.89 679.857 244.17C677.577 242.45 675.817 239.96 674.577 236.7C673.337 233.44 672.717 229.55 672.717 225.03C672.717 220.43 673.337 216.5 674.577 213.24C675.817 209.96 677.567 207.48 679.827 205.8C682.107 204.1 684.777 203.25 687.837 203.25C690.897 203.25 693.567 204.09 695.847 205.77C698.127 207.45 699.887 209.93 701.127 213.21C702.367 216.47 702.987 220.42 702.987 225.06C702.987 229.58 702.357 233.47 701.097 236.73C699.857 239.99 698.097 242.48 695.817 244.2C693.537 245.9 690.867 246.75 687.807 246.75ZM687.837 242.31C690.797 242.31 693.097 240.85 694.737 237.93C696.377 234.99 697.197 230.7 697.197 225.06C697.197 221.28 696.817 218.1 696.057 215.52C695.317 212.92 694.247 210.97 692.847 209.67C691.447 208.35 689.767 207.69 687.807 207.69C684.827 207.69 682.527 209.16 680.907 212.1C679.307 215.04 678.507 219.36 678.507 225.06C678.507 228.8 678.877 231.96 679.617 234.54C680.377 237.12 681.447 239.06 682.827 240.36C684.227 241.66 685.897 242.31 687.837 242.31ZM711.53 245.55C711.53 245.85 711.38 246 711.08 246H705.86C705.58 246 705.44 245.85 705.44 245.55V240.39C705.44 240.09 705.58 239.94 705.86 239.94H711.08C711.22 239.94 711.33 239.98 711.41 240.06C711.49 240.14 711.53 240.25 711.53 240.39V245.55ZM711.53 220.68C711.53 220.98 711.38 221.13 711.08 221.13H705.86C705.58 221.13 705.44 220.98 705.44 220.68V215.52C705.44 215.22 705.58 215.07 705.86 215.07H711.08C711.22 215.07 711.33 215.11 711.41 215.19C711.49 215.27 711.53 215.38 711.53 215.52V220.68ZM729.057 246.75C726.037 246.75 723.387 245.89 721.107 244.17C718.827 242.45 717.067 239.96 715.827 236.7C714.587 233.44 713.967 229.55 713.967 225.03C713.967 220.43 714.587 216.5 715.827 213.24C717.067 209.96 718.817 207.48 721.077 205.8C723.357 204.1 726.027 203.25 729.087 203.25C732.147 203.25 734.817 204.09 737.097 205.77C739.377 207.45 741.137 209.93 742.377 213.21C743.617 216.47 744.237 220.42 744.237 225.06C744.237 229.58 743.607 233.47 742.347 236.73C741.107 239.99 739.347 242.48 737.067 244.2C734.787 245.9 732.117 246.75 729.057 246.75ZM729.087 242.31C732.047 242.31 734.347 240.85 735.987 237.93C737.627 234.99 738.447 230.7 738.447 225.06C738.447 221.28 738.067 218.1 737.307 215.52C736.567 212.92 735.497 210.97 734.097 209.67C732.697 208.35 731.017 207.69 729.057 207.69C726.077 207.69 723.777 209.16 722.157 212.1C720.557 215.04 719.757 219.36 719.757 225.06C719.757 228.8 720.127 231.96 720.867 234.54C721.627 237.12 722.697 239.06 724.077 240.36C725.477 241.66 727.147 242.31 729.087 242.31ZM761.87 246.75C758.85 246.75 756.2 245.89 753.92 244.17C751.64 242.45 749.88 239.96 748.64 236.7C747.4 233.44 746.78 229.55 746.78 225.03C746.78 220.43 747.4 216.5 748.64 213.24C749.88 209.96 751.63 207.48 753.89 205.8C756.17 204.1 758.84 203.25 761.9 203.25C764.96 203.25 767.63 204.09 769.91 205.77C772.19 207.45 773.95 209.93 775.19 213.21C776.43 216.47 777.05 220.42 777.05 225.06C777.05 229.58 776.42 233.47 775.16 236.73C773.92 239.99 772.16 242.48 769.88 244.2C767.6 245.9 764.93 246.75 761.87 246.75ZM761.9 242.31C764.86 242.31 767.16 240.85 768.8 237.93C770.44 234.99 771.26 230.7 771.26 225.06C771.26 221.28 770.88 218.1 770.12 215.52C769.38 212.92 768.31 210.97 766.91 209.67C765.51 208.35 763.83 207.69 761.87 207.69C758.89 207.69 756.59 209.16 754.97 212.1C753.37 215.04 752.57 219.36 752.57 225.06C752.57 228.8 752.94 231.96 753.68 234.54C754.44 237.12 755.51 239.06 756.89 240.36C758.29 241.66 759.96 242.31 761.9 242.31Z" fill="black"/>
<path d="M43 277L778 277" stroke="black" stroke-width="4"/>
</svg>
