<svg width="1444" height="884" viewBox="0 0 1444 884" fill="none" xmlns="http://www.w3.org/2000/svg">
<path d="M930.557 613.428C931.417 610.793 932.378 608.188 933.441 605.619C938.865 592.526 946.814 580.629 956.835 570.608C966.856 560.587 978.753 552.638 991.847 547.215C1004.94 541.792 1018.97 539 1033.14 539V598.954L1091.77 540.332H1175.7V610.945H1225V681.559H1175.7V753.503H1091.77L1033.14 694.881V754.836C1018.97 754.836 1004.94 752.044 991.847 746.621C978.753 741.198 966.856 733.249 956.835 723.228C946.814 713.206 938.865 701.309 933.441 688.216C932.378 685.647 931.417 683.042 930.557 680.407V754.836H831.965V539H930.557V613.428Z" fill="#F97101"/>
<path d="M743.74 754.678H701.201C688.984 754.678 679.08 764.582 679.08 776.799C679.08 789.016 688.984 798.92 701.201 798.92H743.741V754.678H832.226V884H699.5C641.234 884 594 836.766 594 778.5C594 720.234 641.234 673 699.5 673H743.74V754.678Z" fill="#F97101"/>
<path d="M1225 611.036C1225 596.46 1227.83 582.026 1233.33 568.559C1238.84 555.091 1246.9 542.855 1257.07 532.548C1266.63 522.855 1277.88 515.047 1290.23 509.512L1230.34 509.512L1230.34 418.546L1338.51 357.902L1441.33 418.546L1441.33 509.512L1378.77 509.512C1391.12 515.047 1402.37 522.855 1411.93 532.548C1422.1 542.855 1430.16 555.091 1435.67 568.559C1441.17 582.026 1444 596.46 1444 611.036L1225 611.036ZM1338.51 357.902L1230.34 298.342L1230.34 209L1441.33 209L1441.33 298.342L1338.51 357.902Z" fill="#F97101"/>
<path d="M207.513 122V202.215H90.7031C86.8371 202.215 83.7031 205.349 83.7031 209.215V244.041C83.7031 247.907 86.8371 251.041 90.7031 251.041H207.513V333H40.1074V289.405H0V163.852H40.1074V122H207.513Z" fill="#F97101"/>
<path d="M1230.26 0L1310.47 -3.5063e-06L1310.47 117.851C1310.47 121.716 1313.6 124.851 1317.47 124.851L1352.3 124.851C1356.16 124.851 1359.3 121.716 1359.3 117.851L1359.3 -5.64056e-06L1441.26 -9.2231e-06L1441.26 168.812L1397.66 168.812L1397.66 209.256L1272.11 209.256L1272.11 168.812L1230.26 168.812L1230.26 0Z" fill="#F97101"/>
<path d="M207.678 421.484L207.678 333L337 333L337 465.726C337 523.992 289.766 571.226 231.5 571.226C173.234 571.226 126 523.992 126 465.726L126 421.484L207.678 421.484ZM207.678 464.024C207.678 476.241 217.582 486.145 229.799 486.145C242.016 486.145 251.92 476.241 251.92 464.024L251.92 421.484L207.678 421.484L207.678 464.024Z" fill="#F97101"/>
</svg>
