<svg width="1192" height="624" viewBox="0 0 1192 624" fill="none" xmlns="http://www.w3.org/2000/svg">
<g clip-path="url(#clip0_2095_185)">
<path d="M904.834 -0.0454102V85.0181H884.275L856.684 41.4233L884.275 -0.0454102H904.834ZM929.723 -0.0454102C943.467 -0.0454102 954.609 11.0967 954.609 24.8413V60.1313C954.609 73.876 943.467 85.0181 929.723 85.0181C915.978 85.018 904.836 73.8759 904.836 60.1313V24.8413C904.836 11.0968 915.978 -0.0453586 929.723 -0.0454102Z" fill="#FDB4E9"/>
<path d="M440.505 214.464L440.505 191.475C439.567 204.328 428.843 214.464 415.751 214.464C402.043 214.463 390.931 203.351 390.931 189.642L390.931 151.744C390.931 138.036 402.043 126.923 415.751 126.923C428.843 126.923 439.567 137.059 440.505 149.912L440.505 126.923L461.51 126.923L488.787 172.113L461.51 214.464L440.505 214.464Z" fill="#FDB4E9"/>
<path d="M816.314 83.6695L816.314 65.7115C834.08 87.8939 850.23 84.902 856.152 83.6695L856.152 0.745789C838.387 -1.89618 823.851 9.19553 816.314 18.1745L816.314 0.745785L778.091 0.745782L778.091 16.0629L757.095 16.0629L757.095 34.5491L737.176 34.5491L737.176 50.9226L757.095 50.9226L757.095 68.3524L778.091 68.3524L778.091 83.6695L816.314 83.6695Z" fill="#FDB4E9"/>
<path d="M1017.17 212.952L955.022 242.001L955.022 223.26C929.598 234.817 879.316 257.368 881.576 255.119C883.836 252.87 900.095 226.071 907.941 212.952L890.992 212.952C909.825 194.212 940.898 149.046 914.533 118.312L886.284 118.312L886.284 131.43C876.24 130.493 856.153 131.43 856.153 131.43L856.153 118.312L881.576 118.312L881.576 93.9485L856.153 93.9485L856.153 84.5781L931.482 84.5781C943.722 104.256 957.47 155.418 914.533 202.645L955.022 182.967L955.022 190.464L907.941 212.952L1017.17 212.952Z" fill="#FDB4E9"/>
<path d="M594.832 49.7228L577.929 36.9794L580.158 63.9866C589.098 80.0473 597.957 107.911 564.091 87.282C525.848 63.9866 541.879 59.344 552.216 57.8182L556.657 27.1554C562.77 -7.03563 567.869 16.9924 569.4 33.38L577.265 25.8094L585.637 23.375C584.76 19.829 573.003 -23.5574 604.097 15.4063C628.973 46.5774 609.61 42.7363 596.819 36.9194L594.832 49.7228Z" fill="#FDB4E9"/>
<path d="M494.31 206.902L494.31 172.696L488.91 172.696L488.91 90.4695L495.66 90.4695L495.66 0.349716L540.211 0.349714L540.211 90.4695L569.814 90.4695C563.334 126.781 526.936 160.416 515.911 172.696L532.111 172.696L507.136 191.772L507.136 206.902L494.31 206.902Z" fill="#FDB4E9"/>
<path d="M397.218 67.3032L378.68 44.6704L419.113 44.6704C408.832 42.401 401.15 33.3768 401.15 22.5884C401.15 10.0883 411.462 -0.0454095 424.183 -0.0454121C436.903 -0.0454127 447.215 10.0883 447.215 22.5884C447.215 33.3771 439.533 42.4013 429.251 44.6704L469.686 44.6704L452.832 67.3032L469.686 67.3032L469.686 73.3765L452.832 73.3765L452.832 99.3218L433.171 99.3218L433.171 126.923L415.756 126.923L415.756 99.3218L397.218 99.3218L397.218 73.3765L378.68 73.3765L378.68 67.3032L397.218 67.3032Z" fill="#FDB4E9"/>
<path d="M844.404 230.284L844.95 182.946L804.597 190.75L837.224 179.456L804.915 179.456C804.353 144.836 829.498 132.924 842.14 131.295L853.379 152.235L856.188 131.295C871.359 132.412 884.751 141.533 889.2 146.651L911.676 131.295L892.711 152.235C897.628 161.309 898.799 173.64 897.628 179.456C888.029 179.224 868.55 178.619 867.426 178.06C866.302 177.502 871.172 181.085 873.747 182.946L864.616 182.946L894.116 225.523L858.997 187.832L850.569 187.832L844.404 230.284Z" fill="#FDB4E9"/>
<path d="M715.22 407.182L715.22 359.157C730.838 359.486 761.009 359.938 763.642 359.286C763.691 359.141 763.747 359.094 763.81 359.157C763.858 359.204 763.798 359.247 763.642 359.286C763.038 361.063 763.484 377.612 763.81 386.302L801.837 407.182L801.837 358.113L896.904 358.113L896.904 409.27L927.537 409.27L927.537 445.811L844.089 453.741L844.089 433.283C826.343 456.669 783.176 454.859 763.81 451.031L763.81 464.603L707.826 471.912L707.826 407.182L715.22 407.182Z" fill="#FDB4E9"/>
<path d="M510.071 549.94L510.071 597.965C494.453 597.637 464.282 597.184 461.649 597.836C461.6 597.981 461.544 598.028 461.481 597.965C461.433 597.918 461.493 597.875 461.649 597.836C462.253 596.059 461.807 579.511 461.481 570.821L423.454 549.94L423.454 599.009L328.387 599.009L328.387 547.852L297.754 547.852L297.754 511.311L381.202 503.381L381.202 523.84C398.948 500.453 442.115 502.263 461.481 506.091L461.481 492.519L517.465 485.211L517.465 549.94L510.071 549.94Z" fill="#FDB4E9"/>
<path d="M998.91 386.735L1017.17 409.261L977.277 409.261C989.6 411.462 998.926 421.771 998.926 434.157C998.926 448.148 987.029 459.489 972.354 459.49C957.679 459.489 945.783 448.148 945.783 434.157C945.783 421.771 955.109 411.462 967.432 409.261L927.539 409.261L944.137 386.735L927.539 386.735L927.539 380.808L944.137 380.808L944.137 355.484L963.501 355.484L963.501 328.543L980.652 328.543L980.652 355.484L998.91 355.484L998.91 380.808L1017.17 380.808L1017.17 386.735L998.91 386.735Z" fill="#FDB4E9"/>
<path d="M211.254 574.525L189.09 547.464L297.895 547.464L277.745 574.525L297.895 574.525L297.895 581.785L277.745 581.785L277.745 612.804L254.238 612.804L254.238 645.804L233.418 645.804L233.418 612.804L211.254 612.804L211.254 581.785L189.09 581.785L189.09 574.525L211.254 574.525ZM211.531 516.39C211.531 499.229 225.841 485.317 243.492 485.317C261.144 485.317 275.454 499.229 275.454 516.39C275.454 533.552 261.144 547.464 243.492 547.464C225.841 547.464 211.531 533.552 211.531 516.39Z" fill="#FDB4E9"/>
<path d="M358.514 93.8828H333.804V65.4014L304.489 91.8484L274.754 61.3326L304.489 29.1892L333.804 57.6707V29.1892H358.514L379.453 45.0575V78.4215L358.514 93.8828Z" fill="#FDB4E9"/>
<path d="M280.217 224.359L304.203 215.488L274.809 200.313C252.469 198.99 218.419 190.882 260.935 169.03C303.45 147.179 304.046 164.595 299.029 176.034L327.953 200.313C359.464 228.561 331.324 218.211 313.374 209.184L316.196 222.024L313.374 232.063C317.607 233.464 370.046 249.572 309.847 255.875C261.687 260.918 278.023 243.813 292.21 234.631L280.217 224.359Z" fill="#FDB4E9"/>
<path d="M359.023 65.043L356.644 145.094L377.463 122.561L363.187 148.059H390.549C391.025 177.47 369.73 187.59 359.023 188.974L349.506 171.185L347.126 188.974C334.278 188.025 322.937 180.277 319.169 175.929L300.135 188.974L316.195 171.185C312.032 163.476 311.04 153 312.032 148.059C320.161 148.257 336.658 148.771 337.609 149.245C338.561 149.719 334.437 146.675 332.256 145.094H339.989L315.006 108.923L344.747 140.943H351.885L359.023 65.043Z" fill="#FDB4E9"/>
<path d="M411.147 333.337L393.888 333.337C415.207 316.927 412.331 302.008 411.147 296.538L331.45 296.538C328.91 312.948 339.571 326.375 348.2 333.337L331.45 333.337L331.45 368.806L346.171 368.806L346.171 390.453L363.938 390.453L363.938 406.439L379.674 406.439L379.674 390.453L396.426 390.453L396.426 368.806L411.147 368.806L411.147 333.337Z" fill="#FDB4E9"/>
<path d="M814.146 623.785L831.405 623.785C810.086 640.196 812.962 655.114 814.146 660.584L893.843 660.584C896.383 644.174 885.722 630.747 877.093 623.785L893.843 623.785L893.843 588.316L879.122 588.316L879.122 566.669L861.355 566.669L861.355 550.683L845.619 550.683L845.619 566.669L828.867 566.669L828.867 588.316L814.146 588.316L814.146 623.785Z" fill="#FDB4E9"/>
<path d="M517.465 392.092L499.888 392.092L499.888 394.747L457.635 394.747L457.635 391.428L411.179 391.428L411.179 369.527L457.635 369.527L457.635 361.231C476.294 364.417 493.578 376.053 499.888 381.473L499.888 373.509L509.69 385.787L517.465 385.787L517.465 392.092Z" fill="#FDB4E9"/>
<path d="M707.826 565.029L725.403 565.029V562.375L767.656 562.375V565.693L814.112 565.693L814.112 587.595L767.656 587.595V595.891C748.997 592.705 731.713 581.068 725.403 575.648L725.403 583.613L715.601 571.334H707.826V565.029Z" fill="#FDB4E9"/>
<path d="M658.528 252.109L703.177 329.549L670.986 329.443C684.926 361.123 707.828 407.289 707.828 407.289C707.828 407.289 672.44 397.972 656.616 388.194L658.528 409.335C635.922 385.869 595.229 380.342 558.156 413.195V448.395H573.98C572.849 460.911 571.267 485.942 573.98 485.942H558.156V454.262H528.768V485.942H517.465V392.075C541.201 376.822 589.128 326.498 646.095 380.002L622.359 329.549H631.401L656.616 388.194L658.528 252.109Z" fill="#FDB4E9"/>
<path d="M566.763 705.907L522.114 628.467L554.305 628.573C540.365 596.893 517.463 549.834 517.463 549.834C517.463 549.834 552.851 559.151 568.675 568.928L566.763 547.788C589.369 571.254 630.062 576.781 667.136 543.928L667.136 508.728L651.311 508.728C652.442 496.212 654.024 471.181 651.311 471.181L667.136 471.181L667.136 502.861L696.523 502.861L696.523 471.181L707.826 471.181L707.826 565.048C684.09 580.301 636.163 630.624 579.196 577.121L602.932 628.467L593.89 628.467L568.675 568.928L566.763 705.907Z" fill="#FDB4E9"/>
<path d="M166.881 369.326L272.935 372.407L243.083 345.449L276.863 363.935L276.863 328.504C315.828 327.888 329.236 355.462 331.069 369.326L307.501 381.65L331.069 390.797C329.812 407.434 319.547 422.12 313.786 426.998L331.069 451.646L307.501 430.849C297.288 436.241 283.41 437.524 276.863 436.241L276.865 436.164C277.128 425.581 277.807 398.284 278.434 397.054C279.063 395.822 275.03 401.162 272.935 403.986L272.935 393.973L225.014 426.323L267.436 387.812L267.436 378.569L166.881 369.326Z" fill="#FDB4E9"/>
<path d="M1058.41 587.796L952.36 584.715L982.212 611.673L948.432 593.187L948.432 628.618C909.467 629.234 896.059 601.66 894.226 587.796L917.794 575.472L894.226 566.324C895.483 549.687 905.748 535.002 911.509 530.123L894.226 505.476L917.794 526.272C928.006 520.881 941.885 519.597 948.432 520.881L948.43 520.958C948.167 531.541 947.487 558.838 946.861 560.067C946.232 561.3 950.265 555.959 952.36 553.135L952.36 563.148L1000.28 530.799L957.859 569.31L957.859 578.553L1058.41 587.796Z" fill="#FDB4E9"/>
<path d="M613.232 285.625L575.812 207.591H599.954C585.066 175.668 556.015 112.531 558.912 115.369C561.809 118.206 596.333 138.621 613.232 148.474V127.192C637.374 150.839 695.557 189.856 735.15 156.75V121.28H718.25V83.7493H735.15V115.369H766.535V83.7493H778.606L780.801 187.906C755.377 201.839 697.152 217.624 620.653 152.66L651.86 207.591H642.203L613.232 148.474V285.625Z" fill="#FDB4E9"/>
<path d="M838.825 271.913L810.15 300.091L776.11 266.64L773.698 331.133L702.72 329.202L698.81 257.542L766.87 257.561L732.83 224.11L761.505 195.932L804.771 190.689L844.646 229.874L838.825 271.913Z" fill="#FDB4E9"/>
<path d="M612.646 285.809L516.478 283.58L544.935 309.417L512.733 291.7L511.236 336.279C474.091 336.869 461.31 310.441 459.563 297.153L483.527 274.721L461.061 271.768C462.259 255.823 472.515 242.346 478.006 237.671L461.677 213.916L483.673 233.249C493.408 228.081 506.493 226.983 512.733 228.214C512.484 238.302 511.835 258.776 511.236 259.957C510.636 261.138 514.481 256.02 516.478 253.313L516.478 262.91L562.159 231.905L521.72 268.815L521.72 277.674L612.646 285.809Z" fill="#FDB4E9"/>
<path d="M1061.19 225.005L1061.19 211.37C1074.45 228.212 1086.51 225.94 1090.93 225.005L1090.93 162.044C1077.67 160.038 1066.82 168.459 1061.19 175.277L1061.19 162.044L1032.65 162.044L1032.65 173.674L1016.97 173.674L1016.97 187.709L1002.1 187.709L1002.1 200.141L1016.97 200.141L1016.97 213.062L1032.65 213.062L1032.65 225.005L1061.19 225.005Z" fill="#FDB4E9"/>
<path d="M974.336 260.823L1027.91 236.152L1027.8 251.989C1049.72 242.174 1092.81 223.188 1090.86 225.098C1088.91 227.008 1075.26 249.682 1068.5 260.823L1083.11 260.823C1066.87 276.74 1040.09 315.1 1062.81 341.203L1087.17 341.203L1087.17 330.062C1095.83 330.858 1113.14 331.972 1113.14 330.062L1113.14 341.203L1091.23 341.203L1091.23 361.895L1113.14 361.895L1113.14 369.854L1048.2 369.854C1037.65 353.141 1025.8 309.688 1062.81 269.578L1027.91 286.29L1027.91 279.924L1068.5 260.823L974.336 260.823Z" fill="#FDB4E9"/>
<path d="M1141.28 77.9438L1165.53 107.677L1112.66 107.677C1126.1 110.661 1136.14 122.515 1136.14 136.686C1136.14 153.108 1122.66 166.419 1106.02 166.419C1089.39 166.419 1075.9 153.108 1075.9 136.686C1075.9 122.515 1085.94 110.66 1099.39 107.677L1046.52 107.677L1068.56 77.9438L1046.52 77.9438L1046.52 69.9663L1068.56 69.9663L1068.56 35.8804L1094.27 35.8804L1094.27 -0.380374L1117.04 -0.380373L1117.04 35.8804L1141.28 35.8804L1141.28 69.9663L1165.53 69.9663L1165.53 77.9438L1141.28 77.9438Z" fill="#FDB4E9"/>
<path d="M1113.14 369.854L1149.64 369.854L1149.64 412.748L1192.95 372.918L1236.88 418.875L1192.95 467.284L1149.64 424.39L1149.64 467.284L1113.14 467.284L1082.21 443.386L1082.21 393.139L1113.14 369.854Z" fill="#FDB4E9"/>
<path d="M177.967 257.049L177.967 228.948C205.919 263.659 231.329 258.977 240.646 257.049L240.646 127.289C212.695 123.154 189.826 140.511 177.967 154.561L177.967 127.289L117.829 127.289L117.829 151.257L84.7959 151.257L84.7959 180.185L53.4564 180.185L53.4564 205.806L84.7959 205.806L84.7959 233.08L117.829 233.08L117.829 257.049L177.967 257.049Z" fill="#FDB4E9"/>
<path d="M176.869 127.447L176.869 105.374L173.225 105.374L173.225 52.3153L179.57 52.3153L179.57 -5.83742L206.935 -5.83742L206.935 52.3153L219.229 52.3153C214.856 75.7462 198.884 97.4509 191.444 105.374L202.376 105.374L185.523 117.684L185.523 127.447L176.869 127.447Z" fill="#FDB4E9"/>
<path d="M1176.17 575.408L1171.87 530.848L1132.08 573.592C1119.5 610.728 1089.78 664.556 1071.57 582.78C1053.35 501.004 1083.75 507.931 1101.23 521.616L1156.56 483.814C1219.94 443.45 1189.07 486.273 1165.19 512.484L1188.7 513.566L1204.77 522.906C1209.14 516.393 1261.16 435.145 1244.34 539.711C1230.88 623.365 1208.81 587.978 1199.46 559.828L1176.17 575.408Z" fill="#FDB4E9"/>
<path d="M-60.7617 330.079L48.5299 279.808L48.5299 312.241C93.2401 292.24 181.667 253.213 177.693 257.105C173.718 260.997 145.126 307.376 131.327 330.079L161.133 330.079C128.015 362.511 73.3689 440.674 119.735 493.864L136.1 493.864L136.1 471.161L189.089 471.161L189.089 493.864L144.379 493.864L144.379 536.026L189.089 536.026L189.089 547.483L89.9282 547.483C68.4011 513.429 44.2245 429.647 119.735 347.917L48.5299 381.971L48.5299 368.998L131.327 330.079L-60.7617 330.079Z" fill="#FDB4E9"/>
<path d="M204.953 55.3686L107.096 52.5178L134.641 77.4627L103.472 60.3575L103.472 93.1425C67.5185 93.7127 55.1474 68.1975 53.4561 55.3686L75.2021 43.965L53.4561 41.1142C54.6159 25.7195 64.0875 12.1304 69.4031 7.61649L53.4561 -15.1904L75.2021 4.05304C84.6253 -0.935975 97.4313 -2.12383 103.472 -0.935974C103.23 8.80449 102.602 28.5705 102.022 29.7108C101.442 30.8512 105.163 25.9097 107.096 23.2964L107.096 32.5617L151.313 2.62761L112.17 38.2634L112.17 46.816L204.953 55.3686Z" fill="#FDB4E9"/>
</g>
<defs>
<clipPath id="clip0_2095_185">
<rect width="1192" height="624" fill="white"/>
</clipPath>
</defs>
</svg>
